<svg width="16" height="16" viewBox="0 0 16 16" fill="none" xmlns="http://www.w3.org/2000/svg">
<rect width="16" height="12.3636" rx="2" fill="white"/>
<rect y="13.8186" width="16" height="2.18182" rx="1.09091" fill="white"/>
<mask id="path-3-outside-1_921_13" maskUnits="userSpaceOnUse" x="1.54905" y="0.63739" width="13" height="10" fill="black">
<rect fill="white" x="1.54905" y="0.63739" width="13" height="10"/>
<path fill-rule="evenodd" clip-rule="evenodd" d="M7.68472 1.63739C7.45506 1.63739 7.25949 1.76576 7.18573 1.94536L7.18112 1.94501L5.63883 6.47383H3.13036C3.1136 6.47243 3.09661 6.47171 3.07943 6.47171C2.78651 6.47171 2.54905 6.68054 2.54905 6.93814C2.54905 7.18808 2.77258 7.3921 3.05342 7.40402V7.40553H6.4275L7.4905 3.85056L8.15053 9.54186C8.15541 9.79575 8.39096 10.0002 8.68083 10.0002C8.92187 10.0002 9.12535 9.85884 9.18987 9.66521L10.0556 7.40553H13.6481V7.40457C13.6481 7.40457 13.6481 7.40457 13.6482 7.40457C13.9411 7.40457 14.1786 7.19575 14.1786 6.93814C14.1786 6.68054 13.9411 6.47171 13.6482 6.47171C13.631 6.47171 13.614 6.47243 13.5973 6.47383H9.29456L8.79704 8.39543L8.21471 2.02443L8.20734 2.02387C8.16422 1.80436 7.94664 1.63739 7.68472 1.63739Z"/>
</mask>
<path fill-rule="evenodd" clip-rule="evenodd" d="M7.68472 1.63739C7.45506 1.63739 7.25949 1.76576 7.18573 1.94536L7.18112 1.94501L5.63883 6.47383H3.13036C3.1136 6.47243 3.09661 6.47171 3.07943 6.47171C2.78651 6.47171 2.54905 6.68054 2.54905 6.93814C2.54905 7.18808 2.77258 7.3921 3.05342 7.40402V7.40553H6.4275L7.4905 3.85056L8.15053 9.54186C8.15541 9.79575 8.39096 10.0002 8.68083 10.0002C8.92187 10.0002 9.12535 9.85884 9.18987 9.66521L10.0556 7.40553H13.6481V7.40457C13.6481 7.40457 13.6481 7.40457 13.6482 7.40457C13.9411 7.40457 14.1786 7.19575 14.1786 6.93814C14.1786 6.68054 13.9411 6.47171 13.6482 6.47171C13.631 6.47171 13.614 6.47243 13.5973 6.47383H9.29456L8.79704 8.39543L8.21471 2.02443L8.20734 2.02387C8.16422 1.80436 7.94664 1.63739 7.68472 1.63739Z" fill="#1B2535"/>
<path d="M7.18573 1.94536L7.16657 2.19463L7.3479 2.20856L7.41699 2.04034L7.18573 1.94536ZM7.18112 1.94501L7.20027 1.69574L7.00696 1.68089L6.94446 1.86442L7.18112 1.94501ZM5.63883 6.47383V6.72383H5.81779L5.87549 6.55442L5.63883 6.47383ZM3.13036 6.47383L3.10949 6.72296L3.11991 6.72383H3.13036V6.47383ZM3.05342 7.40402H3.30342V7.16441L3.06403 7.15425L3.05342 7.40402ZM3.05342 7.40553H2.80342V7.65553H3.05342V7.40553ZM6.4275 7.40553V7.65553H6.61368L6.66702 7.47715L6.4275 7.40553ZM7.4905 3.85056L7.73883 3.82176L7.25098 3.77893L7.4905 3.85056ZM8.15053 9.54186L8.40048 9.53705L8.40025 9.52501L8.39886 9.51306L8.15053 9.54186ZM9.18987 9.66521L8.95619 9.57569L8.95269 9.58618L9.18987 9.66521ZM10.0556 7.40553V7.15553H9.88365L9.82214 7.31609L10.0556 7.40553ZM13.6481 7.40553V7.65553H13.8981V7.40553H13.6481ZM13.6481 7.40457V7.15457H13.3981V7.40457H13.6481ZM13.5973 6.47383V6.72383H13.6077L13.6181 6.72296L13.5973 6.47383ZM9.29456 6.47383V6.22383H9.10105L9.05254 6.41117L9.29456 6.47383ZM8.79704 8.39543L8.54808 8.41819L9.03906 8.45809L8.79704 8.39543ZM8.21471 2.02443L8.46368 2.00168L8.44445 1.79135L8.23387 1.77517L8.21471 2.02443ZM8.20734 2.02387L7.96202 2.07205L7.99866 2.25857L8.18818 2.27313L8.20734 2.02387ZM7.18573 1.94536L7.41699 2.04034C7.44781 1.96528 7.54429 1.88739 7.68472 1.88739V1.63739V1.38739C7.36582 1.38739 7.07117 1.56624 6.95447 1.85039L7.18573 1.94536ZM7.18112 1.94501L7.16196 2.19427L7.16657 2.19463L7.18573 1.94536L7.20489 1.6961L7.20027 1.69574L7.18112 1.94501ZM5.63883 6.47383L5.87549 6.55442L7.41777 2.0256L7.18112 1.94501L6.94446 1.86442L5.40218 6.39324L5.63883 6.47383ZM3.13036 6.47383V6.72383H5.63883V6.47383V6.22383H3.13036V6.47383ZM3.07943 6.47171V6.72171C3.08964 6.72171 3.09966 6.72214 3.10949 6.72296L3.13036 6.47383L3.15123 6.2247C3.12753 6.22272 3.10358 6.22171 3.07943 6.22171V6.47171ZM2.54905 6.93814H2.79905C2.79905 6.84782 2.89343 6.72171 3.07943 6.72171V6.47171V6.22171C2.67958 6.22171 2.29905 6.51325 2.29905 6.93814H2.54905ZM3.05342 7.40402L3.06403 7.15425C2.88717 7.14674 2.79905 7.02615 2.79905 6.93814H2.54905H2.29905C2.29905 7.35 2.65799 7.63746 3.04281 7.6538L3.05342 7.40402ZM3.05342 7.40553H3.30342V7.40402H3.05342H2.80342V7.40553H3.05342ZM6.4275 7.40553V7.15553H3.05342V7.40553V7.65553H6.4275V7.40553ZM7.4905 3.85056L7.25098 3.77893L6.18798 7.33391L6.4275 7.40553L6.66702 7.47715L7.73002 3.92218L7.4905 3.85056ZM8.15053 9.54186L8.39886 9.51306L7.73883 3.82176L7.4905 3.85056L7.24216 3.87936L7.90219 9.57066L8.15053 9.54186ZM8.68083 10.0002V9.75024C8.49715 9.75024 8.4022 9.62661 8.40048 9.53705L8.15053 9.54186L7.90057 9.54667C7.90862 9.96489 8.28478 10.2502 8.68083 10.2502V10.0002ZM9.18987 9.66521L8.95269 9.58618C8.92665 9.66433 8.82906 9.75024 8.68083 9.75024V10.0002V10.2502C9.01467 10.2502 9.32405 10.0534 9.42705 9.74425L9.18987 9.66521ZM10.0556 7.40553L9.82214 7.31609L8.95642 9.57577L9.18987 9.66521L9.42332 9.75465L10.289 7.49497L10.0556 7.40553ZM13.6481 7.40553V7.15553H10.0556V7.40553V7.65553H13.6481V7.40553ZM13.6481 7.40457H13.3981V7.40553H13.6481H13.8981V7.40457H13.6481ZM13.6482 7.40457V7.15457C13.6482 7.15457 13.6482 7.15457 13.6482 7.15457C13.6482 7.15457 13.6482 7.15457 13.6482 7.15457C13.6482 7.15457 13.6482 7.15457 13.6482 7.15457C13.6482 7.15457 13.6482 7.15457 13.6482 7.15457C13.6482 7.15457 13.6482 7.15457 13.6482 7.15457C13.6482 7.15457 13.6482 7.15457 13.6482 7.15457C13.6482 7.15457 13.6482 7.15457 13.6482 7.15457C13.6482 7.15457 13.6482 7.15457 13.6482 7.15457C13.6482 7.15457 13.6482 7.15457 13.6482 7.15457C13.6482 7.15457 13.6482 7.15457 13.6482 7.15457C13.6482 7.15457 13.6482 7.15457 13.6482 7.15457C13.6482 7.15457 13.6482 7.15457 13.6482 7.15457C13.6482 7.15457 13.6482 7.15457 13.6482 7.15457C13.6482 7.15457 13.6482 7.15457 13.6482 7.15457C13.6482 7.15457 13.6482 7.15457 13.6482 7.15457C13.6482 7.15457 13.6482 7.15457 13.6482 7.15457C13.6482 7.15457 13.6482 7.15457 13.6482 7.15457C13.6482 7.15457 13.6482 7.15457 13.6482 7.15457C13.6482 7.15457 13.6482 7.15457 13.6482 7.15457C13.6482 7.15457 13.6482 7.15457 13.6482 7.15457C13.6482 7.15457 13.6482 7.15457 13.6482 7.15457C13.6482 7.15457 13.6482 7.15457 13.6482 7.15457C13.6482 7.15457 13.6482 7.15457 13.6482 7.15457C13.6482 7.15457 13.6482 7.15457 13.6482 7.15457C13.6482 7.15457 13.6482 7.15457 13.6482 7.15457C13.6482 7.15457 13.6482 7.15457 13.6482 7.15457C13.6482 7.15457 13.6482 7.15457 13.6482 7.15457C13.6482 7.15457 13.6482 7.15457 13.6482 7.15457C13.6482 7.15457 13.6482 7.15457 13.6482 7.15457C13.6482 7.15457 13.6482 7.15457 13.6482 7.15457C13.6482 7.15457 13.6482 7.15457 13.6482 7.15457C13.6482 7.15457 13.6482 7.15457 13.6482 7.15457C13.6482 7.15457 13.6482 7.15457 13.6482 7.15457C13.6482 7.15457 13.6482 7.15457 13.6482 7.15457C13.6482 7.15457 13.6482 7.15457 13.6482 7.15457C13.6482 7.15457 13.6482 7.15457 13.6482 7.15457C13.6482 7.15457 13.6482 7.15457 13.6482 7.15457C13.6482 7.15457 13.6482 7.15457 13.6482 7.15457C13.6482 7.15457 13.6482 7.15457 13.6482 7.15457C13.6482 7.15457 13.6482 7.15457 13.6482 7.15457C13.6482 7.15457 13.6482 7.15457 13.6482 7.15457C13.6482 7.15457 13.6482 7.15457 13.6482 7.15457C13.6482 7.15457 13.6482 7.15457 13.6482 7.15457C13.6482 7.15457 13.6482 7.15457 13.6482 7.15457C13.6482 7.15457 13.6482 7.15457 13.6482 7.15457C13.6482 7.15457 13.6482 7.15457 13.6482 7.15457C13.6482 7.15457 13.6482 7.15457 13.6482 7.15457C13.6482 7.15457 13.6482 7.15457 13.6482 7.15457C13.6482 7.15457 13.6482 7.15457 13.6482 7.15457C13.6482 7.15457 13.6482 7.15457 13.6482 7.15457C13.6482 7.15457 13.6482 7.15457 13.6482 7.15457C13.6482 7.15457 13.6482 7.15457 13.6482 7.15457C13.6482 7.15457 13.6482 7.15457 13.6482 7.15457C13.6482 7.15457 13.6482 7.15457 13.6482 7.15457C13.6482 7.15457 13.6482 7.15457 13.6482 7.15457C13.6482 7.15457 13.6482 7.15457 13.6482 7.15457C13.6482 7.15457 13.6482 7.15457 13.6482 7.15457C13.6482 7.15457 13.6482 7.15457 13.6482 7.15457C13.6482 7.15457 13.6482 7.15457 13.6482 7.15457C13.6482 7.15457 13.6482 7.15457 13.6482 7.15457C13.6482 7.15457 13.6482 7.15457 13.6482 7.15457C13.6482 7.15457 13.6482 7.15457 13.6482 7.15457C13.6482 7.15457 13.6482 7.15457 13.6482 7.15457C13.6482 7.15457 13.6482 7.15457 13.6482 7.15457C13.6482 7.15457 13.6482 7.15457 13.6482 7.15457C13.6482 7.15457 13.6482 7.15457 13.6482 7.15457C13.6482 7.15457 13.6482 7.15457 13.6482 7.15457C13.6482 7.15457 13.6482 7.15457 13.6482 7.15457C13.6482 7.15457 13.6482 7.15457 13.6482 7.15457C13.6482 7.15457 13.6482 7.15457 13.6482 7.15457C13.6482 7.15457 13.6482 7.15457 13.6482 7.15457C13.6482 7.15457 13.6482 7.15457 13.6482 7.15457C13.6482 7.15457 13.6482 7.15457 13.6482 7.15457C13.6482 7.15457 13.6482 7.15457 13.6482 7.15457C13.6482 7.15457 13.6482 7.15457 13.6482 7.15457C13.6482 7.15457 13.6482 7.15457 13.6482 7.15457C13.6482 7.15457 13.6482 7.15457 13.6482 7.15457C13.6482 7.15457 13.6482 7.15457 13.6482 7.15457C13.6482 7.15457 13.6482 7.15457 13.6482 7.15457C13.6482 7.15457 13.6482 7.15457 13.6482 7.15457C13.6482 7.15457 13.6482 7.15457 13.6482 7.15457C13.6482 7.15457 13.6482 7.15457 13.6482 7.15457C13.6482 7.15457 13.6482 7.15457 13.6482 7.15457C13.6482 7.15457 13.6482 7.15457 13.6482 7.15457C13.6482 7.15457 13.6482 7.15457 13.6482 7.15457C13.6482 7.15457 13.6482 7.15457 13.6482 7.15457C13.6482 7.15457 13.6482 7.15457 13.6482 7.15457C13.6482 7.15457 13.6482 7.15457 13.6482 7.15457C13.6482 7.15457 13.6482 7.15457 13.6482 7.15457C13.6482 7.15457 13.6482 7.15457 13.6482 7.15457C13.6482 7.15457 13.6482 7.15457 13.6482 7.15457C13.6482 7.15457 13.6482 7.15457 13.6482 7.15457C13.6482 7.15457 13.6482 7.15457 13.6482 7.15457C13.6482 7.15457 13.6482 7.15457 13.6482 7.15457C13.6482 7.15457 13.6482 7.15457 13.6482 7.15457C13.6482 7.15457 13.6482 7.15457 13.6482 7.15457C13.6482 7.15457 13.6482 7.15457 13.6482 7.15457C13.6482 7.15457 13.6482 7.15457 13.6482 7.15457C13.6482 7.15457 13.6482 7.15457 13.6482 7.15457C13.6482 7.15457 13.6482 7.15457 13.6482 7.15457C13.6482 7.15457 13.6482 7.15457 13.6482 7.15457C13.6482 7.15457 13.6482 7.15457 13.6482 7.15457C13.6482 7.15457 13.6482 7.15457 13.6482 7.15457C13.6482 7.15457 13.6482 7.15457 13.6482 7.15457C13.6482 7.15457 13.6482 7.15457 13.6482 7.15457C13.6482 7.15457 13.6482 7.15457 13.6482 7.15457C13.6482 7.15457 13.6482 7.15457 13.6482 7.15457C13.6482 7.15457 13.6482 7.15457 13.6482 7.15457C13.6482 7.15457 13.6482 7.15457 13.6482 7.15457C13.6482 7.15457 13.6482 7.15457 13.6482 7.15457C13.6482 7.15457 13.6482 7.15457 13.6482 7.15457C13.6482 7.15457 13.6482 7.15457 13.6482 7.15457C13.6482 7.15457 13.6482 7.15457 13.6482 7.15457C13.6482 7.15457 13.6482 7.15457 13.6482 7.15457C13.6482 7.15457 13.6482 7.15457 13.6482 7.15457C13.6482 7.15457 13.6482 7.15457 13.6482 7.15457C13.6482 7.15457 13.6482 7.15457 13.6482 7.15457C13.6482 7.15457 13.6482 7.15457 13.6482 7.15457C13.6482 7.15457 13.6482 7.15457 13.6482 7.15457C13.6482 7.15457 13.6482 7.15457 13.6482 7.15457C13.6482 7.15457 13.6482 7.15457 13.6482 7.15457C13.6482 7.15457 13.6482 7.15457 13.6482 7.15457C13.6482 7.15457 13.6482 7.15457 13.6482 7.15457C13.6482 7.15457 13.6482 7.15457 13.6482 7.15457C13.6482 7.15457 13.6482 7.15457 13.6482 7.15457C13.6482 7.15457 13.6482 7.15457 13.6482 7.15457C13.6482 7.15457 13.6482 7.15457 13.6482 7.15457C13.6482 7.15457 13.6482 7.15457 13.6482 7.15457C13.6482 7.15457 13.6482 7.15457 13.6482 7.15457C13.6482 7.15457 13.6482 7.15457 13.6482 7.15457C13.6482 7.15457 13.6482 7.15457 13.6482 7.15457C13.6482 7.15457 13.6482 7.15457 13.6482 7.15457C13.6482 7.15457 13.6482 7.15457 13.6482 7.15457C13.6482 7.15457 13.6482 7.15457 13.6482 7.15457C13.6482 7.15457 13.6482 7.15457 13.6482 7.15457C13.6482 7.15457 13.6482 7.15457 13.6482 7.15457C13.6482 7.15457 13.6482 7.15457 13.6482 7.15457C13.6482 7.15457 13.6482 7.15457 13.6482 7.15457C13.6482 7.15457 13.6482 7.15457 13.6482 7.15457C13.6482 7.15457 13.6482 7.15457 13.6482 7.15457C13.6482 7.15457 13.6482 7.15457 13.6482 7.15457C13.6482 7.15457 13.6482 7.15457 13.6482 7.15457C13.6482 7.15457 13.6482 7.15457 13.6482 7.15457C13.6482 7.15457 13.6482 7.15457 13.6482 7.15457C13.6482 7.15457 13.6482 7.15457 13.6482 7.15457C13.6482 7.15457 13.6482 7.15457 13.6482 7.15457C13.6482 7.15457 13.6482 7.15457 13.6482 7.15457C13.6482 7.15457 13.6482 7.15457 13.6482 7.15457C13.6482 7.15457 13.6482 7.15457 13.6482 7.15457C13.6482 7.15457 13.6482 7.15457 13.6482 7.15457C13.6482 7.15457 13.6482 7.15457 13.6482 7.15457C13.6482 7.15457 13.6482 7.15457 13.6482 7.15457C13.6482 7.15457 13.6482 7.15457 13.6482 7.15457C13.6482 7.15457 13.6482 7.15457 13.6482 7.15457C13.6482 7.15457 13.6482 7.15457 13.6482 7.15457C13.6482 7.15457 13.6482 7.15457 13.6482 7.15457C13.6482 7.15457 13.6482 7.15457 13.6482 7.15457C13.6482 7.15457 13.6482 7.15457 13.6482 7.15457C13.6482 7.15457 13.6482 7.15457 13.6482 7.15457C13.6482 7.15457 13.6482 7.15457 13.6482 7.15457C13.6482 7.15457 13.6482 7.15457 13.6482 7.15457C13.6482 7.15457 13.6482 7.15457 13.6482 7.15457C13.6482 7.15457 13.6482 7.15457 13.6482 7.15457C13.6482 7.15457 13.6482 7.15457 13.6481 7.15457C13.6481 7.15457 13.6481 7.15457 13.6481 7.15457C13.6481 7.15457 13.6481 7.15457 13.6481 7.15457C13.6481 7.15457 13.6481 7.15457 13.6481 7.15457C13.6481 7.15457 13.6481 7.15457 13.6481 7.15457C13.6481 7.15457 13.6481 7.15457 13.6481 7.15457C13.6481 7.15457 13.6481 7.15457 13.6481 7.15457C13.6481 7.15457 13.6481 7.15457 13.6481 7.15457C13.6481 7.15457 13.6481 7.15457 13.6481 7.15457C13.6481 7.15457 13.6481 7.15457 13.6481 7.15457C13.6481 7.15457 13.6481 7.15457 13.6481 7.15457C13.6481 7.15457 13.6481 7.15457 13.6481 7.15457C13.6481 7.15457 13.6481 7.15457 13.6481 7.15457C13.6481 7.15457 13.6481 7.15457 13.6481 7.15457C13.6481 7.15457 13.6481 7.15457 13.6481 7.15457C13.6481 7.15457 13.6481 7.15457 13.6481 7.15457C13.6481 7.15457 13.6481 7.15457 13.6481 7.15457C13.6481 7.15457 13.6481 7.15457 13.6481 7.15457C13.6481 7.15457 13.6481 7.15457 13.6481 7.15457C13.6481 7.15457 13.6481 7.15457 13.6481 7.15457C13.6481 7.15457 13.6481 7.15457 13.6481 7.15457C13.6481 7.15457 13.6481 7.15457 13.6481 7.15457C13.6481 7.15457 13.6481 7.15457 13.6481 7.15457C13.6481 7.15457 13.6481 7.15457 13.6481 7.15457C13.6481 7.15457 13.6481 7.15457 13.6481 7.15457C13.6481 7.15457 13.6481 7.15457 13.6481 7.15457C13.6481 7.15457 13.6481 7.15457 13.6481 7.15457C13.6481 7.15457 13.6481 7.15457 13.6481 7.15457C13.6481 7.15457 13.6481 7.15457 13.6481 7.15457C13.6481 7.15457 13.6481 7.15457 13.6481 7.15457C13.6481 7.15457 13.6481 7.15457 13.6481 7.15457C13.6481 7.15457 13.6481 7.15457 13.6481 7.15457C13.6481 7.15457 13.6481 7.15457 13.6481 7.15457C13.6481 7.15457 13.6481 7.15457 13.6481 7.15457C13.6481 7.15457 13.6481 7.15457 13.6481 7.15457C13.6481 7.15457 13.6481 7.15457 13.6481 7.15457C13.6481 7.15457 13.6481 7.15457 13.6481 7.15457C13.6481 7.15457 13.6481 7.15457 13.6481 7.15457C13.6481 7.15457 13.6481 7.15457 13.6481 7.15457C13.6481 7.15457 13.6481 7.15457 13.6481 7.15457C13.6481 7.15457 13.6481 7.15457 13.6481 7.15457C13.6481 7.15457 13.6481 7.15457 13.6481 7.15457C13.6481 7.15457 13.6481 7.15457 13.6481 7.15457C13.6481 7.15457 13.6481 7.15457 13.6481 7.15457C13.6481 7.15457 13.6481 7.15457 13.6481 7.15457C13.6481 7.15457 13.6481 7.15457 13.6481 7.15457C13.6481 7.15457 13.6481 7.15457 13.6481 7.15457C13.6481 7.15457 13.6481 7.15457 13.6481 7.15457C13.6481 7.15457 13.6481 7.15457 13.6481 7.15457C13.6481 7.15457 13.6481 7.15457 13.6481 7.15457C13.6481 7.15457 13.6481 7.15457 13.6481 7.15457C13.6481 7.15457 13.6481 7.15457 13.6481 7.15457C13.6481 7.15457 13.6481 7.15457 13.6481 7.15457C13.6481 7.15457 13.6481 7.15457 13.6481 7.15457C13.6481 7.15457 13.6481 7.15457 13.6481 7.15457C13.6481 7.15457 13.6481 7.15457 13.6481 7.15457C13.6481 7.15457 13.6481 7.15457 13.6481 7.15457C13.6481 7.15457 13.6481 7.15457 13.6481 7.15457C13.6481 7.15457 13.6481 7.15457 13.6481 7.15457C13.6481 7.15457 13.6481 7.15457 13.6481 7.15457C13.6481 7.15457 13.6481 7.15457 13.6481 7.15457C13.6481 7.15457 13.6481 7.15457 13.6481 7.15457C13.6481 7.15457 13.6481 7.15457 13.6481 7.15457C13.6481 7.15457 13.6481 7.15457 13.6481 7.15457C13.6481 7.15457 13.6481 7.15457 13.6481 7.15457C13.6481 7.15457 13.6481 7.15457 13.6481 7.15457C13.6481 7.15457 13.6481 7.15457 13.6481 7.15457C13.6481 7.15457 13.6481 7.15457 13.6481 7.15457C13.6481 7.15457 13.6481 7.15457 13.6481 7.15457C13.6481 7.15457 13.6481 7.15457 13.6481 7.15457C13.6481 7.15457 13.6481 7.15457 13.6481 7.15457C13.6481 7.15457 13.6481 7.15457 13.6481 7.15457C13.6481 7.15457 13.6481 7.15457 13.6481 7.15457C13.6481 7.15457 13.6481 7.15457 13.6481 7.15457C13.6481 7.15457 13.6481 7.15457 13.6481 7.15457C13.6481 7.15457 13.6481 7.15457 13.6481 7.15457C13.6481 7.15457 13.6481 7.15457 13.6481 7.15457C13.6481 7.15457 13.6481 7.15457 13.6481 7.15457C13.6481 7.15457 13.6481 7.15457 13.6481 7.15457C13.6481 7.15457 13.6481 7.15457 13.6481 7.15457C13.6481 7.15457 13.6481 7.15457 13.6481 7.15457C13.6481 7.15457 13.6481 7.15457 13.6481 7.15457C13.6481 7.15457 13.6481 7.15457 13.6481 7.15457C13.6481 7.15457 13.6481 7.15457 13.6481 7.15457C13.6481 7.15457 13.6481 7.15457 13.6481 7.15457C13.6481 7.15457 13.6481 7.15457 13.6481 7.15457C13.6481 7.15457 13.6481 7.15457 13.6481 7.15457C13.6481 7.15457 13.6481 7.15457 13.6481 7.15457C13.6481 7.15457 13.6481 7.15457 13.6481 7.15457C13.6481 7.15457 13.6481 7.15457 13.6481 7.15457C13.6481 7.15457 13.6481 7.15457 13.6481 7.15457C13.6481 7.15457 13.6481 7.15457 13.6481 7.15457C13.6481 7.15457 13.6481 7.15457 13.6481 7.15457C13.6481 7.15457 13.6481 7.15457 13.6481 7.15457C13.6481 7.15457 13.6481 7.15457 13.6481 7.15457C13.6481 7.15457 13.6481 7.15457 13.6481 7.15457C13.6481 7.15457 13.6481 7.15457 13.6481 7.15457C13.6481 7.15457 13.6481 7.15457 13.6481 7.15457C13.6481 7.15457 13.6481 7.15457 13.6481 7.15457C13.6481 7.15457 13.6481 7.15457 13.6481 7.15457C13.6481 7.15457 13.6481 7.15457 13.6481 7.15457C13.6481 7.15457 13.6481 7.15457 13.6481 7.15457C13.6481 7.15457 13.6481 7.15457 13.6481 7.15457C13.6481 7.15457 13.6481 7.15457 13.6481 7.15457C13.6481 7.15457 13.6481 7.15457 13.6481 7.15457C13.6481 7.15457 13.6481 7.15457 13.6481 7.15457C13.6481 7.15457 13.6481 7.15457 13.6481 7.15457C13.6481 7.15457 13.6481 7.15457 13.6481 7.15457C13.6481 7.15457 13.6481 7.15457 13.6481 7.15457C13.6481 7.15457 13.6481 7.15457 13.6481 7.15457C13.6481 7.15457 13.6481 7.15457 13.6481 7.15457C13.6481 7.15457 13.6481 7.15457 13.6481 7.15457C13.6481 7.15457 13.6481 7.15457 13.6481 7.15457C13.6481 7.15457 13.6481 7.15457 13.6481 7.15457C13.6481 7.15457 13.6481 7.15457 13.6481 7.15457C13.6481 7.15457 13.6481 7.15457 13.6481 7.15457C13.6481 7.15457 13.6481 7.15457 13.6481 7.15457C13.6481 7.15457 13.6481 7.15457 13.6481 7.15457C13.6481 7.15457 13.6481 7.15457 13.6481 7.15457C13.6481 7.15457 13.6481 7.15457 13.6481 7.15457C13.6481 7.15457 13.6481 7.15457 13.6481 7.15457C13.6481 7.15457 13.6481 7.15457 13.6481 7.15457C13.6481 7.15457 13.6481 7.15457 13.6481 7.15457C13.6481 7.15457 13.6481 7.15457 13.6481 7.15457C13.6481 7.15457 13.6481 7.15457 13.6481 7.15457C13.6481 7.15457 13.6481 7.15457 13.6481 7.15457C13.6481 7.15457 13.6481 7.15457 13.6481 7.15457C13.6481 7.15457 13.6481 7.15457 13.6481 7.15457C13.6481 7.15457 13.6481 7.15457 13.6481 7.15457C13.6481 7.15457 13.6481 7.15457 13.6481 7.15457C13.6481 7.15457 13.6481 7.15457 13.6481 7.15457C13.6481 7.15457 13.6481 7.15457 13.6481 7.15457C13.6481 7.15457 13.6481 7.15457 13.6481 7.15457C13.6481 7.15457 13.6481 7.15457 13.6481 7.15457C13.6481 7.15457 13.6481 7.15457 13.6481 7.15457C13.6481 7.15457 13.6481 7.15457 13.6481 7.15457C13.6481 7.15457 13.6481 7.15457 13.6481 7.15457C13.6481 7.15457 13.6481 7.15457 13.6481 7.15457C13.6481 7.15457 13.6481 7.15457 13.6481 7.15457C13.6481 7.15457 13.6481 7.15457 13.6481 7.15457C13.6481 7.15457 13.6481 7.15457 13.6481 7.15457C13.6481 7.15457 13.6481 7.15457 13.6481 7.15457C13.6481 7.15457 13.6481 7.15457 13.6481 7.15457C13.6481 7.15457 13.6481 7.15457 13.6481 7.15457C13.6481 7.15457 13.6481 7.15457 13.6481 7.15457C13.6481 7.15457 13.6481 7.15457 13.6481 7.15457C13.6481 7.15457 13.6481 7.15457 13.6481 7.15457C13.6481 7.15457 13.6481 7.15457 13.6481 7.15457C13.6481 7.15457 13.6481 7.15457 13.6481 7.15457C13.6481 7.15457 13.6481 7.15457 13.6481 7.15457C13.6481 7.15457 13.6481 7.15457 13.6481 7.15457C13.6481 7.15457 13.6481 7.15457 13.6481 7.15457C13.6481 7.15457 13.6481 7.15457 13.6481 7.15457C13.6481 7.15457 13.6481 7.15457 13.6481 7.15457C13.6481 7.15457 13.6481 7.15457 13.6481 7.15457C13.6481 7.15457 13.6481 7.15457 13.6481 7.15457C13.6481 7.15457 13.6481 7.15457 13.6481 7.15457C13.6481 7.15457 13.6481 7.15457 13.6481 7.15457C13.6481 7.15457 13.6481 7.15457 13.6481 7.15457C13.6481 7.15457 13.6481 7.15457 13.6481 7.15457C13.6481 7.15457 13.6481 7.15457 13.6481 7.15457C13.6481 7.15457 13.6481 7.15457 13.6481 7.15457C13.6481 7.15457 13.6481 7.15457 13.6481 7.15457C13.6481 7.15457 13.6481 7.15457 13.6481 7.15457C13.6481 7.15457 13.6481 7.15457 13.6481 7.15457C13.6481 7.15457 13.6481 7.15457 13.6481 7.15457C13.6481 7.15457 13.6481 7.15457 13.6481 7.15457C13.6481 7.15457 13.6481 7.15457 13.6481 7.15457C13.6481 7.15457 13.6481 7.15457 13.6481 7.15457C13.6481 7.15457 13.6481 7.15457 13.6481 7.15457C13.6481 7.15457 13.6481 7.15457 13.6481 7.15457C13.6481 7.15457 13.6481 7.15457 13.6481 7.15457C13.6481 7.15457 13.6481 7.15457 13.6481 7.15457C13.6481 7.15457 13.6481 7.15457 13.6481 7.15457C13.6481 7.15457 13.6481 7.15457 13.6481 7.15457C13.6481 7.15457 13.6481 7.15457 13.6481 7.15457C13.6481 7.15457 13.6481 7.15457 13.6481 7.15457C13.6481 7.15457 13.6481 7.15457 13.6481 7.15457C13.6481 7.15457 13.6481 7.15457 13.6481 7.15457C13.6481 7.15457 13.6481 7.15457 13.6481 7.15457C13.6481 7.15457 13.6481 7.15457 13.6481 7.15457C13.6481 7.15457 13.6481 7.15457 13.6481 7.15457C13.6481 7.15457 13.6481 7.15457 13.6481 7.15457C13.6481 7.15457 13.6481 7.15457 13.6481 7.15457C13.6481 7.15457 13.6481 7.15457 13.6481 7.15457C13.6481 7.15457 13.6481 7.15457 13.6481 7.15457C13.6481 7.15457 13.6481 7.15457 13.6481 7.15457C13.6481 7.15457 13.6481 7.15457 13.6481 7.15457C13.6481 7.15457 13.6481 7.15457 13.6481 7.15457C13.6481 7.15457 13.6481 7.15457 13.6481 7.15457C13.6481 7.15457 13.6481 7.15457 13.6481 7.15457C13.6481 7.15457 13.6481 7.15457 13.6481 7.15457C13.6481 7.15457 13.6481 7.15457 13.6481 7.15457C13.6481 7.15457 13.6481 7.15457 13.6481 7.15457C13.6481 7.15457 13.6481 7.15457 13.6481 7.15457C13.6481 7.15457 13.6481 7.15457 13.6481 7.15457C13.6481 7.15457 13.6481 7.15457 13.6481 7.15457C13.6481 7.15457 13.6481 7.15457 13.6481 7.15457C13.6481 7.15457 13.6481 7.15457 13.6481 7.15457C13.6481 7.15457 13.6481 7.15457 13.6481 7.15457C13.6481 7.15457 13.6481 7.15457 13.6481 7.15457C13.6481 7.15457 13.6481 7.15457 13.6481 7.15457C13.6481 7.15457 13.6481 7.15457 13.6481 7.15457C13.6481 7.15457 13.6481 7.15457 13.6481 7.15457C13.6481 7.15457 13.6481 7.15457 13.6481 7.15457C13.6481 7.15457 13.6481 7.15457 13.6481 7.15457C13.6481 7.15457 13.6481 7.15457 13.6481 7.15457C13.6481 7.15457 13.6481 7.15457 13.6481 7.15457C13.6481 7.15457 13.6481 7.15457 13.6481 7.15457C13.6481 7.15457 13.6481 7.15457 13.6481 7.15457C13.6481 7.15457 13.6481 7.15457 13.6481 7.15457C13.6481 7.15457 13.6481 7.15457 13.6481 7.15457C13.6481 7.15457 13.6481 7.15457 13.6481 7.15457C13.6481 7.15457 13.6481 7.15457 13.6481 7.15457C13.6481 7.15457 13.6481 7.15457 13.6481 7.15457C13.6481 7.15457 13.6481 7.15457 13.6481 7.15457C13.6481 7.15457 13.6481 7.15457 13.6481 7.15457C13.6481 7.15457 13.6481 7.15457 13.6481 7.15457C13.6481 7.15457 13.6481 7.15457 13.6481 7.15457C13.6481 7.15457 13.6481 7.15457 13.6481 7.15457C13.6481 7.15457 13.6481 7.15457 13.6481 7.15457C13.6481 7.15457 13.6481 7.15457 13.6481 7.15457C13.6481 7.15457 13.6481 7.15457 13.6481 7.15457C13.6481 7.15457 13.6481 7.15457 13.6481 7.15457C13.6481 7.15457 13.6481 7.15457 13.6481 7.15457C13.6481 7.15457 13.6481 7.15457 13.6481 7.15457C13.6481 7.15457 13.6481 7.15457 13.6481 7.15457C13.6481 7.15457 13.6481 7.15457 13.6481 7.15457C13.6481 7.15457 13.6481 7.15457 13.6481 7.15457C13.6481 7.15457 13.6481 7.15457 13.6481 7.15457C13.6481 7.15457 13.6481 7.15457 13.6481 7.15457C13.6481 7.15457 13.6481 7.15457 13.6481 7.15457C13.6481 7.15457 13.6481 7.15457 13.6481 7.15457C13.6481 7.15457 13.6481 7.15457 13.6481 7.15457C13.6481 7.15457 13.6481 7.15457 13.6481 7.15457C13.6481 7.15457 13.6481 7.15457 13.6481 7.15457C13.6481 7.15457 13.6481 7.15457 13.6481 7.15457C13.6481 7.15457 13.6481 7.15457 13.6481 7.15457C13.6481 7.15457 13.6481 7.15457 13.6481 7.15457C13.6481 7.15457 13.6481 7.15457 13.6481 7.15457C13.6481 7.15457 13.6481 7.15457 13.6481 7.15457C13.6481 7.15457 13.6481 7.15457 13.6481 7.15457C13.6481 7.15457 13.6481 7.15457 13.6481 7.15457C13.6481 7.15457 13.6481 7.15457 13.6481 7.15457C13.6481 7.15457 13.6481 7.15457 13.6481 7.15457C13.6481 7.15457 13.6481 7.15457 13.6481 7.15457C13.6481 7.15457 13.6481 7.15457 13.6481 7.15457C13.6481 7.15457 13.6481 7.15457 13.6481 7.15457C13.6481 7.15457 13.6481 7.15457 13.6481 7.15457C13.6481 7.15457 13.6481 7.15457 13.6481 7.15457C13.6481 7.15457 13.6481 7.15457 13.6481 7.15457C13.6481 7.15457 13.6481 7.15457 13.6481 7.15457C13.6481 7.15457 13.6481 7.15457 13.6481 7.15457C13.6481 7.15457 13.6481 7.15457 13.6481 7.15457C13.6481 7.15457 13.6481 7.15457 13.6481 7.15457C13.6481 7.15457 13.6481 7.15457 13.6481 7.15457C13.6481 7.15457 13.6481 7.15457 13.6481 7.15457C13.6481 7.15457 13.6481 7.15457 13.6481 7.15457C13.6481 7.15457 13.6481 7.15457 13.6481 7.15457C13.6481 7.15457 13.6481 7.15457 13.6481 7.15457C13.6481 7.15457 13.6481 7.15457 13.6481 7.15457C13.6481 7.15457 13.6481 7.15457 13.6481 7.15457C13.6481 7.15457 13.6481 7.15457 13.6481 7.15457C13.6481 7.15457 13.6481 7.15457 13.6481 7.15457C13.6481 7.15457 13.6481 7.15457 13.6481 7.15457C13.6481 7.15457 13.6481 7.15457 13.6481 7.15457C13.6481 7.15457 13.6481 7.15457 13.6481 7.15457C13.6481 7.15457 13.6481 7.15457 13.6481 7.15457C13.6481 7.15457 13.6481 7.15457 13.6481 7.15457C13.6481 7.15457 13.6481 7.15457 13.6481 7.15457C13.6481 7.15457 13.6481 7.15457 13.6481 7.15457C13.6481 7.15457 13.6481 7.15457 13.6481 7.15457C13.6481 7.15457 13.6481 7.15457 13.6481 7.15457C13.6481 7.15457 13.6481 7.15457 13.6481 7.15457C13.6481 7.15457 13.6481 7.15457 13.6481 7.15457C13.6481 7.15457 13.6481 7.15457 13.6481 7.15457C13.6481 7.15457 13.6481 7.15457 13.6481 7.15457C13.6481 7.15457 13.6481 7.15457 13.6481 7.15457C13.6481 7.15457 13.6481 7.15457 13.6481 7.15457C13.6481 7.15457 13.6481 7.15457 13.6481 7.15457C13.6481 7.15457 13.6481 7.15457 13.6481 7.15457C13.6481 7.15457 13.6481 7.15457 13.6481 7.15457C13.6481 7.15457 13.6481 7.15457 13.6481 7.15457C13.6481 7.15457 13.6481 7.15457 13.6481 7.15457C13.6481 7.15457 13.6481 7.15457 13.6481 7.15457C13.6481 7.15457 13.6481 7.15457 13.6481 7.15457C13.6481 7.15457 13.6481 7.15457 13.6481 7.15457C13.6481 7.15457 13.6481 7.15457 13.6481 7.15457C13.6481 7.15457 13.6481 7.15457 13.6481 7.15457C13.6481 7.15457 13.6481 7.15457 13.6481 7.15457C13.6481 7.15457 13.6481 7.15457 13.6481 7.15457C13.6481 7.15457 13.6481 7.15457 13.6481 7.15457C13.6481 7.15457 13.6481 7.15457 13.6481 7.15457C13.6481 7.15457 13.6481 7.15457 13.6481 7.15457C13.6481 7.15457 13.6481 7.15457 13.6481 7.15457C13.6481 7.15457 13.6481 7.15457 13.6481 7.15457C13.6481 7.15457 13.6481 7.15457 13.6481 7.15457C13.6481 7.15457 13.6481 7.15457 13.6481 7.15457C13.6481 7.15457 13.6481 7.15457 13.6481 7.15457C13.6481 7.15457 13.6481 7.15457 13.6481 7.15457C13.6481 7.15457 13.6481 7.15457 13.6481 7.15457C13.6481 7.15457 13.6481 7.15457 13.6481 7.15457C13.6481 7.15457 13.6481 7.15457 13.6481 7.15457C13.6481 7.15457 13.6481 7.15457 13.6481 7.15457C13.6481 7.15457 13.6481 7.15457 13.6481 7.15457C13.6481 7.15457 13.6481 7.15457 13.6481 7.15457C13.6481 7.15457 13.6481 7.15457 13.6481 7.15457C13.6481 7.15457 13.6481 7.15457 13.6481 7.15457C13.6481 7.15457 13.6481 7.15457 13.6481 7.15457C13.6481 7.15457 13.6481 7.15457 13.6481 7.15457C13.6481 7.15457 13.6481 7.15457 13.6481 7.15457C13.6481 7.15457 13.6481 7.15457 13.6481 7.15457C13.6481 7.15457 13.6481 7.15457 13.6481 7.15457C13.6481 7.15457 13.6481 7.15457 13.6481 7.15457C13.6481 7.15457 13.6481 7.15457 13.6481 7.15457C13.6481 7.15457 13.6481 7.15457 13.6481 7.15457C13.6481 7.15457 13.6481 7.15457 13.6481 7.15457C13.6481 7.15457 13.6481 7.15457 13.6481 7.15457C13.6481 7.15457 13.6481 7.15457 13.6481 7.15457C13.6481 7.15457 13.6481 7.15457 13.6481 7.15457C13.6481 7.15457 13.6481 7.15457 13.6481 7.15457C13.6481 7.15457 13.6481 7.15457 13.6481 7.15457C13.6481 7.15457 13.6481 7.15457 13.6481 7.15457C13.6481 7.15457 13.6481 7.15457 13.6481 7.15457C13.6481 7.15457 13.6481 7.15457 13.6481 7.15457C13.6481 7.15457 13.6481 7.15457 13.6481 7.15457C13.6481 7.15457 13.6481 7.15457 13.6481 7.15457C13.6481 7.15457 13.6481 7.15457 13.6481 7.15457C13.6481 7.15457 13.6481 7.15457 13.6481 7.15457C13.6481 7.15457 13.6481 7.15457 13.6481 7.15457C13.6481 7.15457 13.6481 7.15457 13.6481 7.15457C13.6481 7.15457 13.6481 7.15457 13.6481 7.15457C13.6481 7.15457 13.6481 7.15457 13.6481 7.15457C13.6481 7.15457 13.6481 7.15457 13.6481 7.15457C13.6481 7.15457 13.6481 7.15457 13.6481 7.15457C13.6481 7.15457 13.6481 7.15457 13.6481 7.15457C13.6481 7.15457 13.6481 7.15457 13.6481 7.15457C13.6481 7.15457 13.6481 7.15457 13.6481 7.15457C13.6481 7.15457 13.6481 7.15457 13.6481 7.15457C13.6481 7.15457 13.6481 7.15457 13.6481 7.15457C13.6481 7.15457 13.6481 7.15457 13.6481 7.15457C13.6481 7.15457 13.6481 7.15457 13.6481 7.15457C13.6481 7.15457 13.6481 7.15457 13.6481 7.15457C13.6481 7.15457 13.6481 7.15457 13.6481 7.15457C13.6481 7.15457 13.6481 7.15457 13.6481 7.15457C13.6481 7.15457 13.6481 7.15457 13.6481 7.15457C13.6481 7.15457 13.6481 7.15457 13.6481 7.15457C13.6481 7.15457 13.6481 7.15457 13.6481 7.15457C13.6481 7.15457 13.6481 7.15457 13.6481 7.15457V7.40457V7.65457C13.6481 7.65457 13.6481 7.65457 13.6481 7.65457C13.6481 7.65457 13.6481 7.65457 13.6481 7.65457C13.6481 7.65457 13.6481 7.65457 13.6481 7.65457C13.6481 7.65457 13.6481 7.65457 13.6481 7.65457C13.6481 7.65457 13.6481 7.65457 13.6481 7.65457C13.6481 7.65457 13.6481 7.65457 13.6481 7.65457C13.6481 7.65457 13.6481 7.65457 13.6481 7.65457C13.6481 7.65457 13.6481 7.65457 13.6481 7.65457C13.6481 7.65457 13.6481 7.65457 13.6481 7.65457C13.6481 7.65457 13.6481 7.65457 13.6481 7.65457C13.6481 7.65457 13.6481 7.65457 13.6481 7.65457C13.6481 7.65457 13.6481 7.65457 13.6481 7.65457C13.6481 7.65457 13.6481 7.65457 13.6481 7.65457C13.6481 7.65457 13.6481 7.65457 13.6481 7.65457C13.6481 7.65457 13.6481 7.65457 13.6481 7.65457C13.6481 7.65457 13.6481 7.65457 13.6481 7.65457C13.6481 7.65457 13.6481 7.65457 13.6481 7.65457C13.6481 7.65457 13.6481 7.65457 13.6481 7.65457C13.6481 7.65457 13.6481 7.65457 13.6481 7.65457C13.6481 7.65457 13.6481 7.65457 13.6481 7.65457C13.6481 7.65457 13.6481 7.65457 13.6481 7.65457C13.6481 7.65457 13.6481 7.65457 13.6481 7.65457C13.6481 7.65457 13.6481 7.65457 13.6481 7.65457C13.6481 7.65457 13.6481 7.65457 13.6481 7.65457C13.6481 7.65457 13.6481 7.65457 13.6481 7.65457C13.6481 7.65457 13.6481 7.65457 13.6481 7.65457C13.6481 7.65457 13.6481 7.65457 13.6481 7.65457C13.6481 7.65457 13.6481 7.65457 13.6481 7.65457C13.6481 7.65457 13.6481 7.65457 13.6481 7.65457C13.6481 7.65457 13.6481 7.65457 13.6481 7.65457C13.6481 7.65457 13.6481 7.65457 13.6481 7.65457C13.6481 7.65457 13.6481 7.65457 13.6481 7.65457C13.6481 7.65457 13.6481 7.65457 13.6481 7.65457C13.6481 7.65457 13.6481 7.65457 13.6481 7.65457C13.6481 7.65457 13.6481 7.65457 13.6481 7.65457C13.6481 7.65457 13.6481 7.65457 13.6481 7.65457C13.6481 7.65457 13.6481 7.65457 13.6481 7.65457C13.6481 7.65457 13.6481 7.65457 13.6481 7.65457C13.6481 7.65457 13.6481 7.65457 13.6481 7.65457C13.6481 7.65457 13.6481 7.65457 13.6481 7.65457C13.6481 7.65457 13.6481 7.65457 13.6481 7.65457C13.6481 7.65457 13.6481 7.65457 13.6481 7.65457C13.6481 7.65457 13.6481 7.65457 13.6481 7.65457C13.6481 7.65457 13.6481 7.65457 13.6481 7.65457C13.6481 7.65457 13.6481 7.65457 13.6481 7.65457C13.6481 7.65457 13.6481 7.65457 13.6481 7.65457C13.6481 7.65457 13.6481 7.65457 13.6481 7.65457C13.6481 7.65457 13.6481 7.65457 13.6481 7.65457C13.6481 7.65457 13.6481 7.65457 13.6481 7.65457C13.6481 7.65457 13.6481 7.65457 13.6481 7.65457C13.6481 7.65457 13.6481 7.65457 13.6481 7.65457C13.6481 7.65457 13.6481 7.65457 13.6481 7.65457C13.6481 7.65457 13.6481 7.65457 13.6481 7.65457C13.6481 7.65457 13.6481 7.65457 13.6481 7.65457C13.6481 7.65457 13.6481 7.65457 13.6481 7.65457C13.6481 7.65457 13.6481 7.65457 13.6481 7.65457C13.6481 7.65457 13.6481 7.65457 13.6481 7.65457C13.6481 7.65457 13.6481 7.65457 13.6481 7.65457C13.6481 7.65457 13.6481 7.65457 13.6481 7.65457C13.6481 7.65457 13.6481 7.65457 13.6481 7.65457C13.6481 7.65457 13.6481 7.65457 13.6481 7.65457C13.6481 7.65457 13.6481 7.65457 13.6481 7.65457C13.6481 7.65457 13.6481 7.65457 13.6481 7.65457C13.6481 7.65457 13.6481 7.65457 13.6481 7.65457C13.6481 7.65457 13.6481 7.65457 13.6481 7.65457C13.6481 7.65457 13.6481 7.65457 13.6481 7.65457C13.6481 7.65457 13.6481 7.65457 13.6481 7.65457C13.6481 7.65457 13.6481 7.65457 13.6481 7.65457C13.6481 7.65457 13.6481 7.65457 13.6481 7.65457C13.6481 7.65457 13.6481 7.65457 13.6481 7.65457C13.6481 7.65457 13.6481 7.65457 13.6481 7.65457C13.6481 7.65457 13.6481 7.65457 13.6481 7.65457C13.6481 7.65457 13.6481 7.65457 13.6481 7.65457C13.6481 7.65457 13.6481 7.65457 13.6481 7.65457C13.6481 7.65457 13.6481 7.65457 13.6481 7.65457C13.6481 7.65457 13.6481 7.65457 13.6481 7.65457C13.6481 7.65457 13.6481 7.65457 13.6481 7.65457C13.6481 7.65457 13.6481 7.65457 13.6481 7.65457C13.6481 7.65457 13.6481 7.65457 13.6481 7.65457C13.6481 7.65457 13.6481 7.65457 13.6481 7.65457C13.6481 7.65457 13.6481 7.65457 13.6481 7.65457C13.6481 7.65457 13.6481 7.65457 13.6481 7.65457C13.6481 7.65457 13.6481 7.65457 13.6481 7.65457C13.6481 7.65457 13.6481 7.65457 13.6481 7.65457C13.6481 7.65457 13.6481 7.65457 13.6481 7.65457C13.6481 7.65457 13.6481 7.65457 13.6481 7.65457C13.6481 7.65457 13.6481 7.65457 13.6481 7.65457C13.6481 7.65457 13.6481 7.65457 13.6481 7.65457C13.6481 7.65457 13.6481 7.65457 13.6481 7.65457C13.6481 7.65457 13.6481 7.65457 13.6481 7.65457C13.6481 7.65457 13.6481 7.65457 13.6481 7.65457C13.6481 7.65457 13.6481 7.65457 13.6481 7.65457C13.6481 7.65457 13.6481 7.65457 13.6481 7.65457C13.6481 7.65457 13.6481 7.65457 13.6481 7.65457C13.6481 7.65457 13.6481 7.65457 13.6481 7.65457C13.6481 7.65457 13.6481 7.65457 13.6481 7.65457C13.6481 7.65457 13.6481 7.65457 13.6481 7.65457C13.6481 7.65457 13.6481 7.65457 13.6481 7.65457C13.6481 7.65457 13.6481 7.65457 13.6481 7.65457C13.6481 7.65457 13.6481 7.65457 13.6481 7.65457C13.6481 7.65457 13.6481 7.65457 13.6481 7.65457C13.6481 7.65457 13.6481 7.65457 13.6481 7.65457C13.6481 7.65457 13.6481 7.65457 13.6481 7.65457C13.6481 7.65457 13.6481 7.65457 13.6481 7.65457C13.6481 7.65457 13.6481 7.65457 13.6481 7.65457C13.6481 7.65457 13.6481 7.65457 13.6481 7.65457C13.6481 7.65457 13.6481 7.65457 13.6481 7.65457C13.6481 7.65457 13.6481 7.65457 13.6481 7.65457C13.6481 7.65457 13.6481 7.65457 13.6481 7.65457C13.6481 7.65457 13.6481 7.65457 13.6481 7.65457C13.6481 7.65457 13.6481 7.65457 13.6481 7.65457C13.6481 7.65457 13.6481 7.65457 13.6481 7.65457C13.6481 7.65457 13.6481 7.65457 13.6481 7.65457C13.6481 7.65457 13.6481 7.65457 13.6481 7.65457C13.6481 7.65457 13.6481 7.65457 13.6481 7.65457C13.6481 7.65457 13.6481 7.65457 13.6481 7.65457C13.6481 7.65457 13.6481 7.65457 13.6481 7.65457C13.6481 7.65457 13.6481 7.65457 13.6481 7.65457C13.6481 7.65457 13.6481 7.65457 13.6481 7.65457C13.6481 7.65457 13.6481 7.65457 13.6481 7.65457C13.6481 7.65457 13.6481 7.65457 13.6481 7.65457C13.6481 7.65457 13.6481 7.65457 13.6481 7.65457C13.6481 7.65457 13.6481 7.65457 13.6481 7.65457C13.6481 7.65457 13.6481 7.65457 13.6481 7.65457C13.6481 7.65457 13.6481 7.65457 13.6481 7.65457C13.6481 7.65457 13.6481 7.65457 13.6481 7.65457C13.6481 7.65457 13.6481 7.65457 13.6481 7.65457C13.6481 7.65457 13.6481 7.65457 13.6481 7.65457C13.6481 7.65457 13.6481 7.65457 13.6481 7.65457C13.6481 7.65457 13.6481 7.65457 13.6481 7.65457C13.6481 7.65457 13.6481 7.65457 13.6481 7.65457C13.6481 7.65457 13.6481 7.65457 13.6481 7.65457C13.6481 7.65457 13.6481 7.65457 13.6481 7.65457C13.6481 7.65457 13.6481 7.65457 13.6481 7.65457C13.6481 7.65457 13.6481 7.65457 13.6481 7.65457C13.6481 7.65457 13.6481 7.65457 13.6481 7.65457C13.6481 7.65457 13.6481 7.65457 13.6481 7.65457C13.6481 7.65457 13.6481 7.65457 13.6481 7.65457C13.6481 7.65457 13.6481 7.65457 13.6481 7.65457C13.6481 7.65457 13.6481 7.65457 13.6481 7.65457C13.6481 7.65457 13.6481 7.65457 13.6481 7.65457C13.6481 7.65457 13.6481 7.65457 13.6481 7.65457C13.6481 7.65457 13.6481 7.65457 13.6481 7.65457C13.6481 7.65457 13.6481 7.65457 13.6481 7.65457C13.6481 7.65457 13.6481 7.65457 13.6481 7.65457C13.6481 7.65457 13.6481 7.65457 13.6481 7.65457C13.6481 7.65457 13.6481 7.65457 13.6481 7.65457C13.6481 7.65457 13.6481 7.65457 13.6481 7.65457C13.6481 7.65457 13.6481 7.65457 13.6481 7.65457C13.6481 7.65457 13.6481 7.65457 13.6481 7.65457C13.6481 7.65457 13.6481 7.65457 13.6481 7.65457C13.6481 7.65457 13.6481 7.65457 13.6481 7.65457C13.6481 7.65457 13.6481 7.65457 13.6481 7.65457C13.6481 7.65457 13.6481 7.65457 13.6481 7.65457C13.6481 7.65457 13.6481 7.65457 13.6481 7.65457C13.6481 7.65457 13.6481 7.65457 13.6481 7.65457C13.6481 7.65457 13.6481 7.65457 13.6481 7.65457C13.6481 7.65457 13.6481 7.65457 13.6481 7.65457C13.6481 7.65457 13.6481 7.65457 13.6481 7.65457C13.6481 7.65457 13.6481 7.65457 13.6481 7.65457C13.6481 7.65457 13.6481 7.65457 13.6481 7.65457C13.6481 7.65457 13.6481 7.65457 13.6481 7.65457C13.6481 7.65457 13.6481 7.65457 13.6481 7.65457C13.6481 7.65457 13.6481 7.65457 13.6481 7.65457C13.6481 7.65457 13.6481 7.65457 13.6481 7.65457C13.6481 7.65457 13.6481 7.65457 13.6481 7.65457C13.6481 7.65457 13.6481 7.65457 13.6481 7.65457C13.6481 7.65457 13.6481 7.65457 13.6481 7.65457C13.6481 7.65457 13.6481 7.65457 13.6481 7.65457C13.6481 7.65457 13.6481 7.65457 13.6481 7.65457C13.6481 7.65457 13.6481 7.65457 13.6481 7.65457C13.6481 7.65457 13.6481 7.65457 13.6481 7.65457C13.6481 7.65457 13.6481 7.65457 13.6481 7.65457C13.6481 7.65457 13.6481 7.65457 13.6481 7.65457C13.6481 7.65457 13.6481 7.65457 13.6481 7.65457C13.6481 7.65457 13.6481 7.65457 13.6481 7.65457C13.6481 7.65457 13.6481 7.65457 13.6481 7.65457C13.6481 7.65457 13.6481 7.65457 13.6481 7.65457C13.6481 7.65457 13.6481 7.65457 13.6481 7.65457C13.6481 7.65457 13.6481 7.65457 13.6481 7.65457C13.6481 7.65457 13.6481 7.65457 13.6481 7.65457C13.6481 7.65457 13.6481 7.65457 13.6481 7.65457C13.6481 7.65457 13.6481 7.65457 13.6481 7.65457C13.6481 7.65457 13.6481 7.65457 13.6481 7.65457C13.6481 7.65457 13.6481 7.65457 13.6481 7.65457C13.6481 7.65457 13.6481 7.65457 13.6481 7.65457C13.6481 7.65457 13.6481 7.65457 13.6481 7.65457C13.6481 7.65457 13.6481 7.65457 13.6481 7.65457C13.6481 7.65457 13.6481 7.65457 13.6481 7.65457C13.6481 7.65457 13.6481 7.65457 13.6481 7.65457C13.6481 7.65457 13.6481 7.65457 13.6481 7.65457C13.6481 7.65457 13.6481 7.65457 13.6481 7.65457C13.6481 7.65457 13.6481 7.65457 13.6481 7.65457C13.6481 7.65457 13.6481 7.65457 13.6481 7.65457C13.6481 7.65457 13.6481 7.65457 13.6481 7.65457C13.6481 7.65457 13.6481 7.65457 13.6481 7.65457C13.6481 7.65457 13.6481 7.65457 13.6481 7.65457C13.6481 7.65457 13.6481 7.65457 13.6481 7.65457C13.6481 7.65457 13.6481 7.65457 13.6481 7.65457C13.6481 7.65457 13.6481 7.65457 13.6481 7.65457C13.6481 7.65457 13.6481 7.65457 13.6481 7.65457C13.6481 7.65457 13.6481 7.65457 13.6481 7.65457C13.6481 7.65457 13.6481 7.65457 13.6481 7.65457C13.6481 7.65457 13.6481 7.65457 13.6481 7.65457C13.6481 7.65457 13.6481 7.65457 13.6481 7.65457C13.6481 7.65457 13.6481 7.65457 13.6481 7.65457C13.6481 7.65457 13.6481 7.65457 13.6481 7.65457C13.6481 7.65457 13.6481 7.65457 13.6481 7.65457C13.6481 7.65457 13.6481 7.65457 13.6481 7.65457C13.6481 7.65457 13.6481 7.65457 13.6481 7.65457C13.6481 7.65457 13.6481 7.65457 13.6481 7.65457C13.6481 7.65457 13.6481 7.65457 13.6481 7.65457C13.6481 7.65457 13.6481 7.65457 13.6481 7.65457C13.6481 7.65457 13.6481 7.65457 13.6481 7.65457C13.6481 7.65457 13.6481 7.65457 13.6481 7.65457C13.6481 7.65457 13.6481 7.65457 13.6481 7.65457C13.6481 7.65457 13.6481 7.65457 13.6481 7.65457C13.6481 7.65457 13.6481 7.65457 13.6481 7.65457C13.6481 7.65457 13.6481 7.65457 13.6481 7.65457C13.6481 7.65457 13.6481 7.65457 13.6481 7.65457C13.6481 7.65457 13.6481 7.65457 13.6481 7.65457C13.6481 7.65457 13.6481 7.65457 13.6481 7.65457C13.6481 7.65457 13.6481 7.65457 13.6481 7.65457C13.6481 7.65457 13.6481 7.65457 13.6481 7.65457C13.6481 7.65457 13.6481 7.65457 13.6481 7.65457C13.6481 7.65457 13.6481 7.65457 13.6481 7.65457C13.6481 7.65457 13.6481 7.65457 13.6481 7.65457C13.6481 7.65457 13.6481 7.65457 13.6481 7.65457C13.6481 7.65457 13.6481 7.65457 13.6481 7.65457C13.6481 7.65457 13.6481 7.65457 13.6481 7.65457C13.6481 7.65457 13.6481 7.65457 13.6481 7.65457C13.6481 7.65457 13.6481 7.65457 13.6481 7.65457C13.6481 7.65457 13.6481 7.65457 13.6481 7.65457C13.6481 7.65457 13.6481 7.65457 13.6481 7.65457C13.6481 7.65457 13.6481 7.65457 13.6481 7.65457C13.6481 7.65457 13.6481 7.65457 13.6481 7.65457C13.6481 7.65457 13.6481 7.65457 13.6481 7.65457C13.6481 7.65457 13.6481 7.65457 13.6481 7.65457C13.6481 7.65457 13.6481 7.65457 13.6481 7.65457C13.6481 7.65457 13.6481 7.65457 13.6481 7.65457C13.6481 7.65457 13.6481 7.65457 13.6481 7.65457C13.6481 7.65457 13.6481 7.65457 13.6481 7.65457C13.6481 7.65457 13.6481 7.65457 13.6481 7.65457C13.6481 7.65457 13.6481 7.65457 13.6481 7.65457C13.6481 7.65457 13.6481 7.65457 13.6481 7.65457C13.6481 7.65457 13.6481 7.65457 13.6481 7.65457C13.6481 7.65457 13.6481 7.65457 13.6481 7.65457C13.6481 7.65457 13.6481 7.65457 13.6481 7.65457C13.6481 7.65457 13.6481 7.65457 13.6481 7.65457C13.6481 7.65457 13.6481 7.65457 13.6481 7.65457C13.6481 7.65457 13.6481 7.65457 13.6481 7.65457C13.6481 7.65457 13.6481 7.65457 13.6481 7.65457C13.6481 7.65457 13.6481 7.65457 13.6481 7.65457C13.6481 7.65457 13.6481 7.65457 13.6481 7.65457C13.6481 7.65457 13.6481 7.65457 13.6481 7.65457C13.6481 7.65457 13.6481 7.65457 13.6481 7.65457C13.6481 7.65457 13.6481 7.65457 13.6481 7.65457C13.6481 7.65457 13.6481 7.65457 13.6481 7.65457C13.6481 7.65457 13.6481 7.65457 13.6481 7.65457C13.6481 7.65457 13.6481 7.65457 13.6481 7.65457C13.6481 7.65457 13.6481 7.65457 13.6481 7.65457C13.6481 7.65457 13.6481 7.65457 13.6481 7.65457C13.6481 7.65457 13.6481 7.65457 13.6481 7.65457C13.6481 7.65457 13.6481 7.65457 13.6481 7.65457C13.6481 7.65457 13.6481 7.65457 13.6481 7.65457C13.6481 7.65457 13.6481 7.65457 13.6481 7.65457C13.6481 7.65457 13.6481 7.65457 13.6481 7.65457C13.6481 7.65457 13.6481 7.65457 13.6481 7.65457C13.6481 7.65457 13.6481 7.65457 13.6481 7.65457C13.6481 7.65457 13.6481 7.65457 13.6481 7.65457C13.6481 7.65457 13.6481 7.65457 13.6481 7.65457C13.6481 7.65457 13.6481 7.65457 13.6481 7.65457C13.6481 7.65457 13.6481 7.65457 13.6481 7.65457C13.6481 7.65457 13.6481 7.65457 13.6481 7.65457C13.6481 7.65457 13.6481 7.65457 13.6481 7.65457C13.6481 7.65457 13.6481 7.65457 13.6481 7.65457C13.6481 7.65457 13.6481 7.65457 13.6481 7.65457C13.6481 7.65457 13.6481 7.65457 13.6481 7.65457C13.6481 7.65457 13.6481 7.65457 13.6481 7.65457C13.6481 7.65457 13.6481 7.65457 13.6481 7.65457C13.6481 7.65457 13.6481 7.65457 13.6481 7.65457C13.6481 7.65457 13.6481 7.65457 13.6481 7.65457C13.6481 7.65457 13.6481 7.65457 13.6481 7.65457C13.6481 7.65457 13.6481 7.65457 13.6481 7.65457C13.6481 7.65457 13.6481 7.65457 13.6481 7.65457C13.6481 7.65457 13.6481 7.65457 13.6481 7.65457C13.6481 7.65457 13.6481 7.65457 13.6481 7.65457C13.6481 7.65457 13.6481 7.65457 13.6481 7.65457C13.6481 7.65457 13.6481 7.65457 13.6481 7.65457C13.6481 7.65457 13.6481 7.65457 13.6481 7.65457C13.6481 7.65457 13.6481 7.65457 13.6481 7.65457C13.6481 7.65457 13.6481 7.65457 13.6481 7.65457C13.6481 7.65457 13.6481 7.65457 13.6481 7.65457C13.6481 7.65457 13.6481 7.65457 13.6481 7.65457C13.6481 7.65457 13.6481 7.65457 13.6481 7.65457C13.6481 7.65457 13.6481 7.65457 13.6481 7.65457C13.6481 7.65457 13.6481 7.65457 13.6481 7.65457C13.6481 7.65457 13.6481 7.65457 13.6481 7.65457C13.6481 7.65457 13.6481 7.65457 13.6481 7.65457C13.6481 7.65457 13.6481 7.65457 13.6481 7.65457C13.6481 7.65457 13.6481 7.65457 13.6481 7.65457C13.6481 7.65457 13.6481 7.65457 13.6481 7.65457C13.6481 7.65457 13.6481 7.65457 13.6481 7.65457C13.6481 7.65457 13.6481 7.65457 13.6481 7.65457C13.6481 7.65457 13.6481 7.65457 13.6481 7.65457C13.6481 7.65457 13.6481 7.65457 13.6481 7.65457C13.6481 7.65457 13.6481 7.65457 13.6481 7.65457C13.6481 7.65457 13.6481 7.65457 13.6481 7.65457C13.6481 7.65457 13.6481 7.65457 13.6481 7.65457C13.6481 7.65457 13.6481 7.65457 13.6481 7.65457C13.6481 7.65457 13.6481 7.65457 13.6481 7.65457C13.6481 7.65457 13.6481 7.65457 13.6481 7.65457C13.6481 7.65457 13.6481 7.65457 13.6481 7.65457C13.6481 7.65457 13.6481 7.65457 13.6481 7.65457C13.6481 7.65457 13.6481 7.65457 13.6481 7.65457C13.6481 7.65457 13.6481 7.65457 13.6481 7.65457C13.6481 7.65457 13.6481 7.65457 13.6481 7.65457C13.6481 7.65457 13.6481 7.65457 13.6481 7.65457C13.6481 7.65457 13.6481 7.65457 13.6481 7.65457C13.6481 7.65457 13.6481 7.65457 13.6481 7.65457C13.6481 7.65457 13.6481 7.65457 13.6481 7.65457C13.6481 7.65457 13.6481 7.65457 13.6481 7.65457C13.6481 7.65457 13.6481 7.65457 13.6481 7.65457C13.6481 7.65457 13.6481 7.65457 13.6481 7.65457C13.6481 7.65457 13.6481 7.65457 13.6481 7.65457C13.6481 7.65457 13.6481 7.65457 13.6481 7.65457C13.6481 7.65457 13.6481 7.65457 13.6481 7.65457C13.6481 7.65457 13.6481 7.65457 13.6481 7.65457C13.6481 7.65457 13.6481 7.65457 13.6481 7.65457C13.6481 7.65457 13.6481 7.65457 13.6481 7.65457C13.6481 7.65457 13.6481 7.65457 13.6481 7.65457C13.6481 7.65457 13.6481 7.65457 13.6481 7.65457C13.6481 7.65457 13.6481 7.65457 13.6481 7.65457C13.6481 7.65457 13.6481 7.65457 13.6481 7.65457C13.6481 7.65457 13.6481 7.65457 13.6481 7.65457C13.6481 7.65457 13.6481 7.65457 13.6481 7.65457C13.6481 7.65457 13.6481 7.65457 13.6481 7.65457C13.6481 7.65457 13.6481 7.65457 13.6481 7.65457C13.6481 7.65457 13.6481 7.65457 13.6481 7.65457C13.6481 7.65457 13.6481 7.65457 13.6481 7.65457C13.6481 7.65457 13.6481 7.65457 13.6481 7.65457C13.6481 7.65457 13.6481 7.65457 13.6481 7.65457C13.6481 7.65457 13.6481 7.65457 13.6481 7.65457C13.6481 7.65457 13.6481 7.65457 13.6481 7.65457C13.6481 7.65457 13.6481 7.65457 13.6481 7.65457C13.6481 7.65457 13.6481 7.65457 13.6481 7.65457C13.6481 7.65457 13.6481 7.65457 13.6481 7.65457C13.6481 7.65457 13.6481 7.65457 13.6481 7.65457C13.6482 7.65457 13.6482 7.65457 13.6482 7.65457C13.6482 7.65457 13.6482 7.65457 13.6482 7.65457C13.6482 7.65457 13.6482 7.65457 13.6482 7.65457C13.6482 7.65457 13.6482 7.65457 13.6482 7.65457C13.6482 7.65457 13.6482 7.65457 13.6482 7.65457C13.6482 7.65457 13.6482 7.65457 13.6482 7.65457C13.6482 7.65457 13.6482 7.65457 13.6482 7.65457C13.6482 7.65457 13.6482 7.65457 13.6482 7.65457C13.6482 7.65457 13.6482 7.65457 13.6482 7.65457C13.6482 7.65457 13.6482 7.65457 13.6482 7.65457C13.6482 7.65457 13.6482 7.65457 13.6482 7.65457C13.6482 7.65457 13.6482 7.65457 13.6482 7.65457C13.6482 7.65457 13.6482 7.65457 13.6482 7.65457C13.6482 7.65457 13.6482 7.65457 13.6482 7.65457C13.6482 7.65457 13.6482 7.65457 13.6482 7.65457C13.6482 7.65457 13.6482 7.65457 13.6482 7.65457C13.6482 7.65457 13.6482 7.65457 13.6482 7.65457C13.6482 7.65457 13.6482 7.65457 13.6482 7.65457C13.6482 7.65457 13.6482 7.65457 13.6482 7.65457C13.6482 7.65457 13.6482 7.65457 13.6482 7.65457C13.6482 7.65457 13.6482 7.65457 13.6482 7.65457C13.6482 7.65457 13.6482 7.65457 13.6482 7.65457C13.6482 7.65457 13.6482 7.65457 13.6482 7.65457C13.6482 7.65457 13.6482 7.65457 13.6482 7.65457C13.6482 7.65457 13.6482 7.65457 13.6482 7.65457C13.6482 7.65457 13.6482 7.65457 13.6482 7.65457C13.6482 7.65457 13.6482 7.65457 13.6482 7.65457C13.6482 7.65457 13.6482 7.65457 13.6482 7.65457C13.6482 7.65457 13.6482 7.65457 13.6482 7.65457C13.6482 7.65457 13.6482 7.65457 13.6482 7.65457C13.6482 7.65457 13.6482 7.65457 13.6482 7.65457C13.6482 7.65457 13.6482 7.65457 13.6482 7.65457C13.6482 7.65457 13.6482 7.65457 13.6482 7.65457C13.6482 7.65457 13.6482 7.65457 13.6482 7.65457C13.6482 7.65457 13.6482 7.65457 13.6482 7.65457C13.6482 7.65457 13.6482 7.65457 13.6482 7.65457C13.6482 7.65457 13.6482 7.65457 13.6482 7.65457C13.6482 7.65457 13.6482 7.65457 13.6482 7.65457C13.6482 7.65457 13.6482 7.65457 13.6482 7.65457C13.6482 7.65457 13.6482 7.65457 13.6482 7.65457C13.6482 7.65457 13.6482 7.65457 13.6482 7.65457C13.6482 7.65457 13.6482 7.65457 13.6482 7.65457C13.6482 7.65457 13.6482 7.65457 13.6482 7.65457C13.6482 7.65457 13.6482 7.65457 13.6482 7.65457C13.6482 7.65457 13.6482 7.65457 13.6482 7.65457C13.6482 7.65457 13.6482 7.65457 13.6482 7.65457C13.6482 7.65457 13.6482 7.65457 13.6482 7.65457C13.6482 7.65457 13.6482 7.65457 13.6482 7.65457C13.6482 7.65457 13.6482 7.65457 13.6482 7.65457C13.6482 7.65457 13.6482 7.65457 13.6482 7.65457C13.6482 7.65457 13.6482 7.65457 13.6482 7.65457C13.6482 7.65457 13.6482 7.65457 13.6482 7.65457C13.6482 7.65457 13.6482 7.65457 13.6482 7.65457C13.6482 7.65457 13.6482 7.65457 13.6482 7.65457C13.6482 7.65457 13.6482 7.65457 13.6482 7.65457C13.6482 7.65457 13.6482 7.65457 13.6482 7.65457C13.6482 7.65457 13.6482 7.65457 13.6482 7.65457C13.6482 7.65457 13.6482 7.65457 13.6482 7.65457C13.6482 7.65457 13.6482 7.65457 13.6482 7.65457C13.6482 7.65457 13.6482 7.65457 13.6482 7.65457C13.6482 7.65457 13.6482 7.65457 13.6482 7.65457C13.6482 7.65457 13.6482 7.65457 13.6482 7.65457C13.6482 7.65457 13.6482 7.65457 13.6482 7.65457C13.6482 7.65457 13.6482 7.65457 13.6482 7.65457C13.6482 7.65457 13.6482 7.65457 13.6482 7.65457C13.6482 7.65457 13.6482 7.65457 13.6482 7.65457C13.6482 7.65457 13.6482 7.65457 13.6482 7.65457C13.6482 7.65457 13.6482 7.65457 13.6482 7.65457C13.6482 7.65457 13.6482 7.65457 13.6482 7.65457C13.6482 7.65457 13.6482 7.65457 13.6482 7.65457C13.6482 7.65457 13.6482 7.65457 13.6482 7.65457C13.6482 7.65457 13.6482 7.65457 13.6482 7.65457C13.6482 7.65457 13.6482 7.65457 13.6482 7.65457C13.6482 7.65457 13.6482 7.65457 13.6482 7.65457C13.6482 7.65457 13.6482 7.65457 13.6482 7.65457C13.6482 7.65457 13.6482 7.65457 13.6482 7.65457C13.6482 7.65457 13.6482 7.65457 13.6482 7.65457C13.6482 7.65457 13.6482 7.65457 13.6482 7.65457C13.6482 7.65457 13.6482 7.65457 13.6482 7.65457C13.6482 7.65457 13.6482 7.65457 13.6482 7.65457C13.6482 7.65457 13.6482 7.65457 13.6482 7.65457C13.6482 7.65457 13.6482 7.65457 13.6482 7.65457C13.6482 7.65457 13.6482 7.65457 13.6482 7.65457C13.6482 7.65457 13.6482 7.65457 13.6482 7.65457C13.6482 7.65457 13.6482 7.65457 13.6482 7.65457C13.6482 7.65457 13.6482 7.65457 13.6482 7.65457C13.6482 7.65457 13.6482 7.65457 13.6482 7.65457C13.6482 7.65457 13.6482 7.65457 13.6482 7.65457C13.6482 7.65457 13.6482 7.65457 13.6482 7.65457C13.6482 7.65457 13.6482 7.65457 13.6482 7.65457C13.6482 7.65457 13.6482 7.65457 13.6482 7.65457C13.6482 7.65457 13.6482 7.65457 13.6482 7.65457C13.6482 7.65457 13.6482 7.65457 13.6482 7.65457C13.6482 7.65457 13.6482 7.65457 13.6482 7.65457C13.6482 7.65457 13.6482 7.65457 13.6482 7.65457C13.6482 7.65457 13.6482 7.65457 13.6482 7.65457C13.6482 7.65457 13.6482 7.65457 13.6482 7.65457C13.6482 7.65457 13.6482 7.65457 13.6482 7.65457C13.6482 7.65457 13.6482 7.65457 13.6482 7.65457C13.6482 7.65457 13.6482 7.65457 13.6482 7.65457C13.6482 7.65457 13.6482 7.65457 13.6482 7.65457C13.6482 7.65457 13.6482 7.65457 13.6482 7.65457C13.6482 7.65457 13.6482 7.65457 13.6482 7.65457C13.6482 7.65457 13.6482 7.65457 13.6482 7.65457C13.6482 7.65457 13.6482 7.65457 13.6482 7.65457C13.6482 7.65457 13.6482 7.65457 13.6482 7.65457C13.6482 7.65457 13.6482 7.65457 13.6482 7.65457C13.6482 7.65457 13.6482 7.65457 13.6482 7.65457C13.6482 7.65457 13.6482 7.65457 13.6482 7.65457C13.6482 7.65457 13.6482 7.65457 13.6482 7.65457C13.6482 7.65457 13.6482 7.65457 13.6482 7.65457C13.6482 7.65457 13.6482 7.65457 13.6482 7.65457C13.6482 7.65457 13.6482 7.65457 13.6482 7.65457C13.6482 7.65457 13.6482 7.65457 13.6482 7.65457C13.6482 7.65457 13.6482 7.65457 13.6482 7.65457C13.6482 7.65457 13.6482 7.65457 13.6482 7.65457C13.6482 7.65457 13.6482 7.65457 13.6482 7.65457C13.6482 7.65457 13.6482 7.65457 13.6482 7.65457C13.6482 7.65457 13.6482 7.65457 13.6482 7.65457C13.6482 7.65457 13.6482 7.65457 13.6482 7.65457C13.6482 7.65457 13.6482 7.65457 13.6482 7.65457C13.6482 7.65457 13.6482 7.65457 13.6482 7.65457C13.6482 7.65457 13.6482 7.65457 13.6482 7.65457C13.6482 7.65457 13.6482 7.65457 13.6482 7.65457C13.6482 7.65457 13.6482 7.65457 13.6482 7.65457C13.6482 7.65457 13.6482 7.65457 13.6482 7.65457C13.6482 7.65457 13.6482 7.65457 13.6482 7.65457C13.6482 7.65457 13.6482 7.65457 13.6482 7.65457C13.6482 7.65457 13.6482 7.65457 13.6482 7.65457C13.6482 7.65457 13.6482 7.65457 13.6482 7.65457C13.6482 7.65457 13.6482 7.65457 13.6482 7.65457C13.6482 7.65457 13.6482 7.65457 13.6482 7.65457C13.6482 7.65457 13.6482 7.65457 13.6482 7.65457C13.6482 7.65457 13.6482 7.65457 13.6482 7.65457C13.6482 7.65457 13.6482 7.65457 13.6482 7.65457C13.6482 7.65457 13.6482 7.65457 13.6482 7.65457C13.6482 7.65457 13.6482 7.65457 13.6482 7.65457C13.6482 7.65457 13.6482 7.65457 13.6482 7.65457C13.6482 7.65457 13.6482 7.65457 13.6482 7.65457C13.6482 7.65457 13.6482 7.65457 13.6482 7.65457C13.6482 7.65457 13.6482 7.65457 13.6482 7.65457C13.6482 7.65457 13.6482 7.65457 13.6482 7.65457C13.6482 7.65457 13.6482 7.65457 13.6482 7.65457C13.6482 7.65457 13.6482 7.65457 13.6482 7.65457C13.6482 7.65457 13.6482 7.65457 13.6482 7.65457C13.6482 7.65457 13.6482 7.65457 13.6482 7.65457C13.6482 7.65457 13.6482 7.65457 13.6482 7.65457C13.6482 7.65457 13.6482 7.65457 13.6482 7.65457C13.6482 7.65457 13.6482 7.65457 13.6482 7.65457C13.6482 7.65457 13.6482 7.65457 13.6482 7.65457C13.6482 7.65457 13.6482 7.65457 13.6482 7.65457C13.6482 7.65457 13.6482 7.65457 13.6482 7.65457C13.6482 7.65457 13.6482 7.65457 13.6482 7.65457C13.6482 7.65457 13.6482 7.65457 13.6482 7.65457C13.6482 7.65457 13.6482 7.65457 13.6482 7.65457C13.6482 7.65457 13.6482 7.65457 13.6482 7.65457C13.6482 7.65457 13.6482 7.65457 13.6482 7.65457C13.6482 7.65457 13.6482 7.65457 13.6482 7.65457C13.6482 7.65457 13.6482 7.65457 13.6482 7.65457C13.6482 7.65457 13.6482 7.65457 13.6482 7.65457C13.6482 7.65457 13.6482 7.65457 13.6482 7.65457C13.6482 7.65457 13.6482 7.65457 13.6482 7.65457C13.6482 7.65457 13.6482 7.65457 13.6482 7.65457C13.6482 7.65457 13.6482 7.65457 13.6482 7.65457V7.40457ZM14.1786 6.93814H13.9286C13.9286 7.02846 13.8342 7.15457 13.6482 7.15457V7.40457V7.65457C14.048 7.65457 14.4286 7.36303 14.4286 6.93814H14.1786ZM13.6482 6.47171V6.72171C13.8342 6.72171 13.9286 6.84782 13.9286 6.93814H14.1786H14.4286C14.4286 6.51325 14.048 6.22171 13.6482 6.22171V6.47171ZM13.5973 6.47383L13.6181 6.72296C13.628 6.72214 13.638 6.72171 13.6482 6.72171V6.47171V6.22171C13.624 6.22171 13.6001 6.22272 13.5764 6.2247L13.5973 6.47383ZM9.29456 6.47383V6.72383H13.5973V6.47383V6.22383H9.29456V6.47383ZM8.79704 8.39543L9.03906 8.45809L9.53658 6.53649L9.29456 6.47383L9.05254 6.41117L8.55502 8.33277L8.79704 8.39543ZM8.21471 2.02443L7.96575 2.04719L8.54808 8.41819L8.79704 8.39543L9.046 8.37267L8.46368 2.00168L8.21471 2.02443ZM8.20734 2.02387L8.18818 2.27313L8.19556 2.2737L8.21471 2.02443L8.23387 1.77517L8.22649 1.7746L8.20734 2.02387ZM7.68472 1.63739V1.88739C7.84773 1.88739 7.94569 1.98888 7.96202 2.07205L8.20734 2.02387L8.45265 1.97568C8.38275 1.61983 8.04555 1.38739 7.68472 1.38739V1.63739Z" fill="#1B2535" mask="url(#path-3-outside-1_921_13)"/>
</svg>
