<svg width="33" height="46" viewBox="0 0 33 46" fill="none" xmlns="http://www.w3.org/2000/svg">
<path d="M16.0417 45.0841C11.9931 45.0841 8.68924 44.4548 6.13021 43.1962C3.57118 41.9376 2.29167 40.3127 2.29167 38.3215C2.29167 37.4198 2.56858 36.5839 3.1224 35.8137C3.67622 35.0435 4.44965 34.3766 5.44271 33.8131L9.05208 37.138C8.70833 37.2883 8.33594 37.4574 7.9349 37.6452C7.53385 37.8331 7.21875 38.0585 6.98958 38.3215C7.48611 38.9226 8.63194 39.4486 10.4271 39.8994C12.2222 40.3503 14.0938 40.5757 16.0417 40.5757C17.9896 40.5757 19.8707 40.3503 21.6849 39.8994C23.4991 39.4486 24.6545 38.9226 25.151 38.3215C24.8837 38.0209 24.5399 37.7767 24.1198 37.5889C23.6997 37.401 23.2986 37.2319 22.9167 37.0817L26.4688 33.7004C27.5382 34.3015 28.3594 34.9871 28.9323 35.7573C29.5052 36.5275 29.7917 37.3822 29.7917 38.3215C29.7917 40.3127 28.5122 41.9376 25.9531 43.1962C23.3941 44.4548 20.0903 45.0841 16.0417 45.0841ZM16.099 32.686C19.8802 29.9433 22.7257 27.1913 24.6354 24.4299C26.5451 21.6685 27.5 18.8977 27.5 16.1176C27.5 12.2854 26.2587 9.39252 23.776 7.43887C21.2934 5.48523 18.7153 4.50841 16.0417 4.50841C13.3681 4.50841 10.7899 5.48523 8.30729 7.43887C5.82465 9.39252 4.58333 12.2854 4.58333 16.1176C4.58333 18.6348 5.5191 21.2553 7.39063 23.9791C9.26215 26.7029 12.1649 29.6052 16.099 32.686ZM16.0417 38.3215C10.6563 34.4142 6.63628 30.6196 3.98177 26.9377C1.32726 23.2559 0 19.6491 0 16.1176C0 13.4501 0.486979 11.1113 1.46094 9.10135C2.4349 7.09135 3.68576 5.41009 5.21354 4.05757C6.74132 2.70505 8.46007 1.69065 10.3698 1.01439C12.2795 0.338131 14.1701 0 16.0417 0C17.9132 0 19.8038 0.338131 21.7135 1.01439C23.6233 1.69065 25.342 2.70505 26.8698 4.05757C28.3976 5.41009 29.6484 7.09135 30.6224 9.10135C31.5964 11.1113 32.0833 13.4501 32.0833 16.1176C32.0833 19.6491 30.7561 23.2559 28.1016 26.9377C25.447 30.6196 21.4271 34.4142 16.0417 38.3215ZM16.0417 20.2878C17.3021 20.2878 18.3811 19.8464 19.2786 18.9635C20.1762 18.0806 20.625 17.0192 20.625 15.7794C20.625 14.5396 20.1762 13.4783 19.2786 12.5954C18.3811 11.7125 17.3021 11.271 16.0417 11.271C14.7813 11.271 13.7023 11.7125 12.8047 12.5954C11.9071 13.4783 11.4583 14.5396 11.4583 15.7794C11.4583 17.0192 11.9071 18.0806 12.8047 18.9635C13.7023 19.8464 14.7813 20.2878 16.0417 20.2878Z" fill="white" fill-opacity="0.73"/>
</svg>
