<svg width="47" height="47" viewBox="0 0 47 47" fill="none" xmlns="http://www.w3.org/2000/svg">
<path d="M11.7032 46.813V35.1097H0V11.7032H11.7032V0H35.1097V11.7032H46.813V35.1097H35.1097V46.813H11.7032ZM4.6813 21.0658H16.3845C16.7746 21.0658 17.1452 21.1634 17.4963 21.3584C17.8474 21.5535 18.1205 21.807 18.3156 22.1191L20.3636 25.162L23.5235 15.6823C23.6796 15.2142 23.9624 14.8241 24.372 14.512C24.7816 14.1999 25.24 14.0439 25.7471 14.0439C26.1372 14.0439 26.5078 14.1414 26.8589 14.3365C27.21 14.5315 27.4831 14.7851 27.6782 15.0972L31.6573 21.0658H42.1317V16.3845H30.4284V4.6813H16.3845V16.3845H4.6813V21.0658ZM16.3845 42.1317H30.4284V30.4284H42.1317V25.7471H30.4284C30.0383 25.7471 29.6677 25.6496 29.3166 25.4545C28.9655 25.2595 28.6729 25.0059 28.4389 24.6938L26.4493 21.651L23.2894 31.1306C23.1334 31.5987 22.8408 31.9889 22.4117 32.3009C21.9826 32.613 21.5145 32.7691 21.0073 32.7691C20.6172 32.7691 20.2466 32.6715 19.8955 32.4765C19.5444 32.2814 19.2713 32.0279 19.0763 31.7158L15.0972 25.7471H4.6813V30.4284H16.3845V42.1317Z" fill="white" fill-opacity="0.73"/>
</svg>
