<svg width="16" height="16" viewBox="0 0 16 16" fill="none" xmlns="http://www.w3.org/2000/svg">
<path fill-rule="evenodd" clip-rule="evenodd" d="M10.9249 9.44189L12.0183 10.5339C12.1362 10.6521 12.303 10.7076 12.4682 10.6842C13.1025 10.5942 13.7706 10.7926 14.258 11.2797C14.4846 11.5061 14.6487 11.7712 14.7505 12.054L13.927 11.4782C13.7161 11.3307 13.4295 11.356 13.2473 11.5379L11.5351 13.2486C11.3526 13.4308 11.3274 13.7179 11.4753 13.9291L12.0507 14.7504C11.7678 14.6489 11.5019 14.4848 11.2753 14.2585C10.7879 13.7713 10.5895 13.1046 10.6792 12.4711C10.7029 12.3056 10.6471 12.1385 10.5289 12.0206L8.46978 9.96331C8.26232 9.75612 7.92578 9.75639 7.71859 9.96384C7.5114 10.171 7.5114 10.5078 7.71886 10.715L9.60054 12.5951C9.553 13.4629 9.86086 14.3472 10.5244 15.0099C11.2572 15.7422 12.2608 16.0411 13.2144 15.9059C13.3971 15.8801 13.5536 15.7611 13.6272 15.5916C13.7007 15.4222 13.6808 15.2267 13.5751 15.0753L12.6016 13.685L13.6835 12.6042L15.0756 13.5771C15.227 13.6831 15.4225 13.7025 15.5917 13.6289C15.7612 13.5554 15.8802 13.3992 15.906 13.2164C16.0414 12.2636 15.7423 11.2606 15.0092 10.528C14.3457 9.8653 13.4609 9.5577 12.592 9.60525L11.6759 8.69017C11.4687 8.48298 11.1319 8.48325 10.9247 8.69044C10.7175 8.89789 10.7175 9.2347 10.9249 9.44189Z" fill="white"/>
<path fill-rule="evenodd" clip-rule="evenodd" d="M6.16788 7.66355L1.37574 2.87566C0.958441 2.45889 0.958441 1.78288 1.37574 1.36611L1.376 1.36584C1.57044 1.17167 1.83394 1.0625 2.1086 1.0625C2.38352 1.0625 2.64702 1.17167 2.84146 1.36584L6.59872 5.11966C6.80618 5.32684 7.14272 5.32658 7.35018 5.11913C7.55736 4.91194 7.5571 4.57513 7.34964 4.36794L3.59238 0.614125C3.19899 0.221 2.66508 0 2.1086 0C1.55211 0 1.01847 0.221 0.625082 0.614125L0.624551 0.614391C-0.208184 1.44633 -0.208184 2.79544 0.624551 3.62738L5.41669 8.415C5.62414 8.62245 5.96096 8.62219 6.16814 8.41474C6.37533 8.20728 6.37507 7.87074 6.16788 7.66355Z" fill="white"/>
<path fill-rule="evenodd" clip-rule="evenodd" d="M7.34271 7.94697L2.70038 12.5851C2.18108 12.3423 1.54358 12.435 1.11486 12.8634C0.682425 13.2953 0.180925 13.7963 0.180925 13.7963C0.0813155 13.8962 0.0252686 14.0314 0.0252686 14.1722C0.0252686 14.3132 0.0813155 14.4484 0.180925 14.548L1.41316 15.7792C1.62061 15.9864 1.95663 15.9864 2.16408 15.7792C2.16408 15.7792 2.66558 15.2782 3.09802 14.8461C3.49832 14.4463 3.60589 13.8646 3.42102 13.3668L8.09443 8.6979L8.83897 9.44191C9.04642 9.6491 9.38244 9.6491 9.58989 9.44191C9.58989 9.44191 13.3634 5.6719 15.3014 3.73576C16.1277 2.90993 16.1277 1.57144 15.3014 0.745881L15.3011 0.74535C14.9045 0.349303 14.3666 0.126709 13.8059 0.126709C13.2449 0.126709 12.7073 0.349303 12.3107 0.74535C10.3727 2.68149 6.59869 6.45204 6.59869 6.45204C6.49908 6.55165 6.44303 6.68685 6.44303 6.8279C6.44303 6.96894 6.49908 7.10415 6.59869 7.20376L7.34271 7.94697Z" fill="white"/>
</svg>
