<svg width="18" height="18" viewBox="0 0 18 18" fill="none" xmlns="http://www.w3.org/2000/svg">
<path d="M11.116 7.61536C11.8591 7.61536 12.4615 8.33859 12.4615 9.23074V12.2307H12.4585V13.1538H5.53846V10.3846H5.53994V9.23074C5.53994 8.33859 6.14237 7.61536 6.8855 7.61536H11.116Z" fill="#FFFBF4"/>
<path d="M16.6154 9.23136C16.6154 8.33934 15.9804 7.61622 15.1971 7.61622L12.4615 7.61536C12.7801 8.05434 12.9716 8.61733 12.9716 9.23136V10.385H12.9683V13.1538H16.0075C16.3432 13.1538 16.6154 12.8439 16.6154 12.4616V9.23136Z" fill="#FFFBF4"/>
<path d="M5.02743 12.2309H5.029V9.23136L5.03599 9.02868C5.07306 8.49375 5.25558 8.00552 5.53846 7.61536L2.80127 7.61622L2.68508 7.62158C1.95703 7.68895 1.38462 8.38392 1.38462 9.23136V12.4616C1.38462 12.8439 1.65644 13.1538 1.99175 13.1538H5.02743V12.2309Z" fill="#FFFBF4"/>
<path d="M9 2.25C10.2427 2.25 11.25 3.25736 11.25 4.5C11.25 5.74264 10.2427 6.75 9 6.75C7.75732 6.75 6.75 5.74264 6.75 4.5C6.75 3.25736 7.75732 2.25 9 2.25Z" fill="#FFFBF4"/>
<path d="M13.875 3C14.9105 3 15.75 3.83947 15.75 4.875C15.75 5.91053 14.9105 6.75 13.875 6.75C12.8395 6.75 12 5.91053 12 4.875C12 3.83947 12.8395 3 13.875 3Z" fill="#FFFBF4"/>
<path d="M4.125 3C5.16053 3 6 3.83947 6 4.875C6 5.91053 5.16053 6.75 4.125 6.75C3.08947 6.75 2.25 5.91053 2.25 4.875C2.25 3.83947 3.08947 3 4.125 3Z" fill="#FFFBF4"/>
<rect x="1.38462" y="15.2308" width="15.2308" height="2.07692" rx="1.03846" fill="white"/>
</svg>
