<svg width="97" height="60" viewBox="0 0 97 60" fill="none" xmlns="http://www.w3.org/2000/svg">
<path d="M14.2895 33.1358L25.2088 0.131252H28.5789L14.2895 43.2135L0 0.131252H3.36783L14.2895 33.1358Z" fill="#FFFBF4"/>
<path d="M45.4786 39.0763C42.9615 41.7962 39.9399 43.1561 36.4164 43.1561C32.8928 43.1561 30.0642 41.8577 27.5866 39.2583C25.1089 36.6614 23.8701 33.5752 23.8701 30.002C23.8701 26.4288 25.1089 23.2442 27.5866 20.6866C30.0642 18.1291 33.0067 16.8503 36.4164 16.8503C39.8261 16.8503 42.9615 18.2102 45.4786 20.9301L48.9627 17.0323V42.9102L45.4786 39.0739V39.0763ZM36.4164 20.1997C33.783 20.1997 31.5657 21.144 29.7644 23.0302C27.9631 24.9189 27.0636 27.2428 27.0636 30.002C27.0636 32.7612 27.9654 35.0851 29.7644 36.9737C31.5657 38.8624 33.7807 39.8042 36.4164 39.8042C39.0521 39.8042 41.2183 38.8501 43.0382 36.9418C44.858 35.0334 45.7691 32.7194 45.7691 29.9995C45.7691 27.2797 44.858 24.9656 43.0382 23.0573C41.2183 21.1489 39.0102 20.1948 36.4164 20.1948V20.1997Z" fill="#FFFBF4"/>
<path d="M42.169 54.4033C43.3311 55.7558 44.8209 56.4321 46.6408 56.4321C48.2678 56.4321 49.6809 55.837 50.8802 54.6492C52.0796 53.4614 52.6815 51.9244 52.6815 50.0407V16.7902H55.8774V50.0407C55.8774 52.7458 54.9756 55.05 53.1766 56.9559C51.3753 58.8618 49.1975 59.8135 46.6408 59.8135C43.8517 59.8135 41.5484 58.7265 39.7285 56.555L42.169 54.4033Z" fill="#FFFBF4"/>
<path d="M72.0242 17.4651L70.5715 20.4776C70.1067 20.3153 69.5442 20.2317 68.8864 20.2317C67.1038 20.2317 65.6418 20.8661 64.5006 22.1375C63.3571 23.4089 62.7876 24.9238 62.7876 26.6845V43.1561H59.5918V17.5266L62.2647 19.8013C64.045 17.834 66.2531 16.8503 68.8864 16.8503C70.0486 16.8503 71.0945 17.0544 72.0219 17.4651H72.0242Z" fill="#FFFBF4"/>
<path d="M93.5157 39.0777C90.9986 41.7975 87.977 43.1575 84.4535 43.1575C80.9299 43.1575 78.1013 41.859 75.6237 39.2597C73.146 36.6628 71.9072 33.5765 71.9072 30.0033C71.9072 26.4302 73.146 23.2455 75.6237 20.688C78.1013 18.1304 81.0438 16.8517 84.4535 16.8517C87.8632 16.8517 90.9986 18.2116 93.5157 20.9314L96.9998 16.7902V43.1575L93.5157 39.0777ZM84.4535 20.2011C81.8201 20.2011 79.6028 21.1454 77.8015 23.0316C76.0002 24.9202 75.1007 27.2441 75.1007 30.0033C75.1007 32.7625 76.0025 35.0889 77.8015 36.9751C79.6028 38.8638 81.8178 39.8056 84.4535 39.8056C87.0892 39.8056 89.2554 38.8515 91.0753 36.9431C92.8952 35.0348 93.8063 32.7207 93.8063 30.0009C93.8063 27.281 92.8952 24.9669 91.0753 23.0586C89.2554 21.1503 87.0473 20.1961 84.4535 20.1961V20.2011Z" fill="#FFFBF4"/>
<path d="M59.5918 53.84H63.7824L64.9283 50.0873L66.1648 55.6697L67.6244 51.7768L68.7819 53.3777L70.3902 46.3715L72.1171 56.9484L73.4396 50.2103L74.7273 53.84H96.8448" stroke="#E0353E" stroke-miterlimit="10"/>
<path d="M54.2665 0V0.271147L54.1383 0.527504L54.0381 0.507784L54.2665 0Z" fill="#E0353E"/>
<path d="M54.0391 0.505444L54.2674 0.707732V0.633724L54.1416 0.525179L54.0391 0.505444Z" fill="#E0353E"/>
<path d="M54.2677 0.360626L54.1826 0.513576L54.2677 0.572782V0.360626Z" fill="#E0353E"/>
<path d="M54.0895 0.62701C54.0895 0.62701 54.1454 1.03277 54.1174 1.45575C54.1174 1.45575 54.1174 1.95251 53.9893 2.25498H54.1034L54.2316 2.07546V0.74751L54.0895 0.62701Z" fill="#E0353E"/>
<path d="M54.2656 2.10991L54.1523 2.26031H54.2656V2.10991Z" fill="#E0353E"/>
<path d="M54.2656 2.45947L54.1523 2.30659H54.2656V2.45947Z" fill="#E0353E"/>
<path d="M53.9824 2.30659H54.0966L54.2388 2.5035V3.48311H53.9964C53.9964 3.48311 54.0826 3.22713 54.0686 2.72994C54.0686 2.72994 54.0547 2.45919 53.9824 2.30905V2.30659Z" fill="#E0353E"/>
<path d="M53.5831 0.0191078C53.5831 0.0191078 53.6831 0.299701 53.5831 0.516299C53.5831 0.516299 53.4762 0.718129 53.2275 0.816583L53.2996 0.937188C53.2996 0.937188 53.7691 0.681209 53.797 0.395693C53.797 0.395693 53.8388 0.124946 53.5831 0.0191078Z" fill="#E0353E"/>
<path d="M53.1854 1.02552C53.1854 1.02552 53.2993 0.949283 53.2273 0.875508C53.2273 0.875508 53.0994 0.769763 52.9437 0.875508C52.9437 0.875508 52.8577 0.951742 52.9577 1.02552C52.9577 1.02552 53.0134 1.13126 52.9158 1.06978C52.9158 1.06978 52.774 0.949283 52.5881 1.08454C52.5881 1.08454 52.4022 1.23455 52.5323 1.40177C52.5323 1.40177 52.5742 1.44112 52.6602 1.43128C52.6602 1.43128 52.7066 1.49768 52.6183 1.4903C52.6183 1.4903 52.3487 1.39931 52.1767 1.7313C52.1767 1.7313 52.0349 2.01657 52.3766 2.10756C52.3766 2.10756 52.4626 2.15674 52.3766 2.16658C52.3766 2.16658 51.9792 2.07559 51.935 2.49856C51.935 2.49856 51.8932 2.79858 52.2185 2.86006C52.2185 2.86006 52.3045 2.90433 52.2185 2.91908C52.2185 2.91908 51.7491 2.90433 51.763 3.47732C51.763 3.47732 51.7769 3.86833 52.1186 3.94456C52.1186 3.94456 52.4463 3.98882 52.5323 3.62733C52.5323 3.62733 52.1488 3.74783 52.1488 3.41584C52.1488 3.41584 52.1488 3.23632 52.4045 3.2191C52.4045 3.2191 52.5742 3.20435 52.7462 3.50437L52.8322 3.66913L53.0018 3.61011C53.0018 3.61011 52.5881 3.08385 52.6183 2.41987C52.6183 2.41987 52.5765 1.65261 53.1878 1.0206L53.1854 1.02552Z" fill="#E0353E"/>
<path d="M53.8241 0.46719C53.8241 0.46719 53.752 0.708189 53.4963 0.858199C53.4963 0.858199 52.9687 1.08444 52.7572 1.86646C52.7572 1.86646 52.4156 2.68045 53.0408 3.58297L53.2267 3.55346C53.2267 3.55346 52.8851 3.22147 52.8851 2.63372C52.8851 2.63372 52.8711 1.97221 53.3546 1.97221C53.3546 1.97221 53.5684 1.95745 53.6544 2.22796C53.6544 2.22796 53.7102 2.40748 53.6404 2.5747C53.6404 2.5747 53.8961 2.49847 53.9101 2.18369C53.9101 2.18369 53.924 1.77793 53.5823 1.68694C53.5823 1.68694 53.1849 1.67219 53.2267 1.40168C53.2267 1.40168 53.2128 1.25167 53.5103 0.981158C53.5103 0.981158 53.7938 0.754913 53.8241 0.469649V0.46719Z" fill="#E0353E"/>
<path d="M52.9434 2.71297C52.9434 2.71297 52.9434 3.22493 53.299 3.55721L53.5128 3.52768C53.5128 3.52768 53.0572 3.24216 52.9434 2.71297Z" fill="#E0353E"/>
<path d="M54.2681 3.51009C54.2681 3.51009 53.3988 3.53967 52.7736 3.72207C52.7736 3.72207 52.6039 3.79849 52.6597 3.96364C52.6597 3.96364 52.6876 4.114 52.8735 4.08442C52.8735 4.08442 53.5708 3.88723 54.2704 3.88723V3.51009H54.2681Z" fill="#E0353E"/>
<path d="M54.0831 3.94856L53.913 4.0552L53.7988 3.96344C53.7988 3.96344 53.955 3.94856 54.0831 3.94856Z" fill="#E0353E"/>
<path d="M53.5992 4.20542C53.5992 4.20542 53.6272 4.08315 53.6994 4.05321C53.6994 4.05321 53.7414 4.06818 53.8136 4.14553L53.8998 4.06818C53.8998 4.06818 53.7996 3.97585 53.6854 3.96088C53.6854 3.96088 53.5852 3.99082 53.5293 4.12807L53.6015 4.20542H53.5992Z" fill="#E0353E"/>
<path d="M53.5826 3.97524L53.4967 4.11397L53.3691 4.02064C53.3691 4.02064 53.4828 3.99037 53.5826 3.97524Z" fill="#E0353E"/>
<path d="M53.7257 4.11144C53.7257 4.11144 53.6983 4.09661 53.6709 4.12627C53.6709 4.12627 53.6436 4.17077 53.6436 4.24739C53.6436 4.24739 53.6436 4.27706 53.6709 4.30672L53.7417 4.41301C53.7417 4.41301 53.7143 4.35368 53.7553 4.26222C53.7553 4.26222 53.7964 4.21773 53.7827 4.17077C53.7827 4.17077 53.769 4.1411 53.728 4.11144H53.7257Z" fill="#E0353E"/>
<path d="M52.8857 4.12573C52.8857 4.12573 53.0856 4.04942 53.2995 4.03466C53.2995 4.03466 53.769 4.21433 53.855 4.9552L53.7411 4.96997C53.7411 4.96997 53.6411 4.53185 53.4133 4.3374C53.4133 4.3374 53.2274 4.15772 52.902 4.17249L52.8881 4.12819L52.8857 4.12573Z" fill="#E0353E"/>
<path d="M52.6881 4.41557C52.6881 4.41557 52.702 4.21837 53.0019 4.21837C53.0019 4.21837 53.3156 4.24795 53.4853 4.48952C53.4853 4.48952 53.6271 4.70151 53.6991 4.98744L53.6131 5.00223C53.6131 5.00223 53.5713 4.85187 53.4992 4.76067C53.4992 4.76067 53.4435 4.7163 53.4574 4.79025C53.4574 4.79025 53.5295 4.91103 53.5713 5.01702L53.4853 5.0466C53.4853 5.0466 53.3575 4.76067 53.1576 4.60784L53.2134 4.54868C53.2134 4.54868 53.2273 4.50431 53.1855 4.5191C53.1855 4.5191 53.1134 4.65467 52.9159 4.63988C52.9159 4.63988 52.6741 4.62509 52.6881 4.41311V4.41557Z" fill="#E0353E"/>
<path d="M54.2686 3.94856C54.2686 3.94856 54.1245 3.94856 53.9548 4.08394C53.9548 4.08394 53.7991 4.18977 53.7852 4.43099C53.7852 4.43099 53.7852 4.52206 53.8409 4.68697C53.8409 4.68697 53.8967 4.82234 53.8967 4.94295H54.0664C54.0664 4.94295 53.9664 4.76327 53.9664 4.56636C53.9664 4.56636 53.9525 4.23408 54.2663 4.11347V3.94856H54.2686Z" fill="#E0353E"/>
<path d="M54.2729 4.98474V5.34709C54.2729 5.34709 53.8522 5.3323 53.5268 5.46787C53.5268 5.46787 53.3571 5.55908 53.2851 5.40871C53.2851 5.40871 53.1991 5.27314 53.3571 5.15236C53.3571 5.15236 53.6779 4.9872 54.2752 4.9872L54.2729 4.98474Z" fill="#E0353E"/>
<path d="M54.1666 4.92733H54.1106C54.1106 4.92733 54.0244 4.77697 54.0244 4.55019C54.0244 4.55019 54.0384 4.26425 54.2691 4.15826V4.26425C54.2691 4.26425 54.0827 4.37025 54.0827 4.61182C54.0827 4.61182 54.0827 4.77697 54.1689 4.9298L54.1666 4.92733Z" fill="#E0353E"/>
<path d="M54.2641 4.30993V4.50713C54.2641 4.50713 54.2231 4.50713 54.2231 4.56629V4.92864C54.2231 4.92864 54.1524 4.80786 54.1387 4.61066C54.1387 4.61066 54.1455 4.39867 54.2641 4.30993Z" fill="#E0353E"/>
<path d="M54.2666 0V0.273612L54.4041 0.512714L54.4996 0.517644L54.2666 0Z" fill="#E0353E"/>
<path d="M54.4987 0.518307L54.2656 0.710727V0.636719L54.4078 0.510906L54.4987 0.518307Z" fill="#E0353E"/>
<path d="M54.2656 0.360626L54.3531 0.513576L54.2656 0.572782V0.360626Z" fill="#E0353E"/>
<path d="M54.4449 0.62701C54.4449 0.62701 54.389 1.03277 54.4169 1.45575C54.4169 1.45575 54.4169 1.95251 54.5451 2.25498H54.4309L54.3027 2.07546V0.74751L54.4449 0.62701Z" fill="#E0353E"/>
<path d="M54.2656 2.10991L54.3789 2.26031H54.2656V2.10991Z" fill="#E0353E"/>
<path d="M54.2656 2.45947L54.3789 2.30659H54.2656V2.45947Z" fill="#E0353E"/>
<path d="M54.5532 2.30659H54.439L54.2969 2.5035V3.48311H54.5392C54.5392 3.48311 54.453 3.22713 54.467 2.72994C54.467 2.72994 54.481 2.45919 54.5532 2.30905V2.30659Z" fill="#E0353E"/>
<path d="M54.9498 0.0191078C54.9498 0.0191078 54.8498 0.275087 54.9498 0.516299C54.9498 0.516299 55.0497 0.713206 55.3054 0.816583L55.2333 0.937188C55.2333 0.937188 54.7638 0.681209 54.7359 0.395693C54.7359 0.395693 54.6941 0.124946 54.9498 0.0191078Z" fill="#E0353E"/>
<path d="M55.3489 1.02552C55.3489 1.02552 55.235 0.949283 55.3071 0.875508C55.3071 0.875508 55.4349 0.769763 55.5906 0.875508C55.5906 0.875508 55.6766 0.951742 55.5767 1.02552C55.5767 1.02552 55.5209 1.13126 55.6185 1.06978C55.6185 1.06978 55.7603 0.949283 55.9463 1.08454C55.9463 1.08454 56.1322 1.23455 56.002 1.40177C56.002 1.40177 55.9463 1.43128 55.8742 1.43128C55.8742 1.43128 55.8324 1.4903 55.916 1.4903C55.916 1.4903 56.1857 1.39931 56.3577 1.7313C56.3577 1.7313 56.4994 2.01657 56.1578 2.10756C56.1578 2.10756 56.0718 2.13707 56.1578 2.16658C56.1578 2.16658 56.5552 2.07559 56.5994 2.49856C56.5994 2.49856 56.6412 2.79858 56.3158 2.86006C56.3158 2.86006 56.2298 2.90433 56.3158 2.91908C56.3158 2.91908 56.7853 2.90433 56.7714 3.47732C56.7714 3.47732 56.7574 3.86833 56.4158 3.94456C56.4158 3.94456 56.088 3.98882 56.002 3.62733C56.002 3.62733 56.3855 3.74783 56.3855 3.41584C56.3855 3.41584 56.3855 3.23632 56.1299 3.2191C56.1299 3.2191 55.9602 3.20435 55.7882 3.50437L55.7022 3.66913L55.5325 3.61011C55.5325 3.61011 55.9463 3.08385 55.916 2.41987C55.916 2.41987 55.9579 1.65261 55.3466 1.0206L55.3489 1.02552Z" fill="#E0353E"/>
<path d="M54.7081 0.46719C54.7081 0.46719 54.7802 0.708189 55.0359 0.858199C55.0359 0.858199 55.5635 1.08444 55.775 1.86646C55.775 1.86646 56.1166 2.68045 55.4914 3.58297L55.3055 3.55346C55.3055 3.55346 55.6471 3.22147 55.6471 2.63372C55.6471 2.63372 55.6611 1.97221 55.1776 1.97221C55.1776 1.97221 54.9638 1.95745 54.8778 2.22796C54.8778 2.22796 54.822 2.40748 54.8918 2.5747C54.8918 2.5747 54.6361 2.49847 54.6221 2.18369C54.6221 2.18369 54.6082 1.77793 54.9499 1.68694C54.9499 1.68694 55.3473 1.67219 55.3055 1.40168C55.3055 1.40168 55.3194 1.25167 55.0219 0.981158C55.0219 0.981158 54.7384 0.754913 54.7081 0.469649V0.46719Z" fill="#E0353E"/>
<path d="M55.5909 2.71297C55.5909 2.71297 55.5909 3.22493 55.2353 3.55721L55.0215 3.52768C55.0215 3.52768 55.477 3.24216 55.5909 2.71297Z" fill="#E0353E"/>
<path d="M54.2686 3.51009C54.2686 3.51009 55.1355 3.53967 55.7607 3.72207C55.7607 3.72207 55.9304 3.79849 55.8746 3.96364C55.8746 3.96364 55.8467 4.114 55.6608 4.08442C55.6608 4.08442 54.9635 3.88723 54.2686 3.88723V3.51009Z" fill="#E0353E"/>
<path d="M54.4521 3.94856L54.6223 4.0552L54.7365 3.96344C54.7365 3.96344 54.5803 3.94856 54.4521 3.94856Z" fill="#E0353E"/>
<path d="M54.9364 4.20542C54.9364 4.20542 54.9084 4.08315 54.8362 4.05321C54.8362 4.05321 54.7942 4.06818 54.722 4.14553L54.6357 4.06818C54.6357 4.06818 54.7359 3.97585 54.8501 3.96088C54.8501 3.96088 54.9503 3.99082 55.0063 4.12807L54.934 4.20542H54.9364Z" fill="#E0353E"/>
<path d="M54.9492 3.97524L55.0351 4.11397L55.1627 4.02064C55.1627 4.02064 55.049 3.99037 54.9492 3.97524Z" fill="#E0353E"/>
<path d="M54.8069 4.11144C54.8069 4.11144 54.8343 4.09661 54.8617 4.12627C54.8617 4.12627 54.889 4.17077 54.889 4.24739C54.889 4.24739 54.889 4.27706 54.8617 4.30672L54.7909 4.41301C54.7909 4.41301 54.8183 4.35368 54.7772 4.26222C54.7772 4.26222 54.7362 4.21773 54.7499 4.17077C54.7499 4.17077 54.7636 4.1411 54.8046 4.11144H54.8069Z" fill="#E0353E"/>
<path d="M55.6469 4.12573C55.6469 4.12573 55.4471 4.04942 55.2332 4.03466C55.2332 4.03466 54.7637 4.21433 54.6777 4.9552L54.7916 4.96997C54.7916 4.96997 54.8916 4.53185 55.1193 4.3374C55.1193 4.3374 55.3053 4.15772 55.6307 4.17249L55.6446 4.12819L55.6469 4.12573Z" fill="#E0353E"/>
<path d="M55.847 4.41557C55.847 4.41557 55.833 4.21837 55.5332 4.21837C55.5332 4.21837 55.2194 4.24795 55.0498 4.48952C55.0498 4.48952 54.908 4.70151 54.8359 4.98744L54.9219 5.00223C54.9219 5.00223 54.9638 4.85187 55.0358 4.76067C55.0358 4.76067 55.0916 4.7163 55.0777 4.79025C55.0777 4.79025 55.0056 4.91103 54.9638 5.01702L55.0498 5.0466C55.0498 5.0466 55.1776 4.76067 55.3775 4.60784L55.3217 4.54868C55.3217 4.54868 55.3078 4.50431 55.3496 4.5191C55.3496 4.5191 55.4216 4.65467 55.6192 4.63988C55.6192 4.63988 55.8609 4.62509 55.847 4.41311V4.41557Z" fill="#E0353E"/>
<path d="M54.2686 3.94856C54.2686 3.94856 54.4103 3.94856 54.58 4.08394C54.58 4.08394 54.7357 4.18977 54.7497 4.43099C54.7497 4.43099 54.7497 4.52206 54.6939 4.68697C54.6939 4.68697 54.6381 4.82234 54.6381 4.94295H54.4684C54.4684 4.94295 54.5684 4.76327 54.5684 4.56636C54.5684 4.56636 54.5823 4.23408 54.2709 4.11347V3.94856H54.2686Z" fill="#E0353E"/>
<path d="M54.2592 4.98474V5.34709C54.2592 5.34709 54.6775 5.3323 55.0052 5.46787C55.0052 5.46787 55.1749 5.55908 55.247 5.40871C55.247 5.40871 55.333 5.27314 55.1749 5.15236C55.1749 5.15236 54.8542 4.9872 54.2568 4.9872L54.2592 4.98474Z" fill="#E0353E"/>
<path d="M54.3664 4.92776H54.4224C54.4224 4.92776 54.5086 4.7774 54.5086 4.55062C54.5086 4.55062 54.4946 4.26468 54.2686 4.15622V4.26222C54.2686 4.26222 54.4527 4.36821 54.4527 4.60978C54.4527 4.60978 54.4527 4.77493 54.3664 4.92776Z" fill="#E0353E"/>
<path d="M54.2656 4.30689V4.50408C54.2656 4.50408 54.309 4.50408 54.309 4.56324V4.92559C54.309 4.92559 54.3797 4.80481 54.3934 4.60761C54.3934 4.60761 54.3797 4.39562 54.2679 4.30442L54.2656 4.30689Z" fill="#E0353E"/>
<path d="M61.1096 7.24604H60.8539L60.668 7.12377V7.01648L61.1096 7.24604Z" fill="#E0353E"/>
<path d="M60.6171 7.03769L60.4609 7.24985H60.5321L60.6171 7.12897V7.03769Z" fill="#E0353E"/>
<path d="M60.7874 7.25286L60.6459 7.16065L60.5879 7.25286H60.7874Z" fill="#E0353E"/>
<path d="M60.5396 7.06302C60.5396 7.06302 60.1561 7.1229 59.7564 7.09296C59.7564 7.09296 59.2869 7.09296 59.001 6.95572V7.07799L59.1706 7.21523H60.4234L60.5373 7.06302H60.5396Z" fill="#E0353E"/>
<path d="M59.1353 7.25322L58.9961 7.1299V7.25322H59.1353Z" fill="#E0353E"/>
<path d="M58.8105 7.25322L58.9497 7.1299V7.25322H58.8105Z" fill="#E0353E"/>
<path d="M58.9528 6.94752V7.06864L58.7668 7.21942H57.8418V6.96235C57.8418 6.96235 58.0835 7.05381 58.553 7.03898C58.553 7.03898 58.8087 7.02415 58.9505 6.94752H58.9528Z" fill="#E0353E"/>
<path d="M61.116 6.52755C61.116 6.52755 60.8742 6.63354 60.6465 6.52755C60.6465 6.52755 60.4605 6.42155 60.3629 6.15041L60.249 6.22682C60.249 6.22682 60.4907 6.72474 60.7604 6.75432C60.7604 6.75432 61.016 6.79869 61.116 6.52755Z" fill="#E0353E"/>
<path d="M60.1628 6.1066C60.1628 6.1066 60.2349 6.2271 60.3046 6.15087C60.3046 6.15087 60.4046 6.01561 60.3046 5.85085C60.3046 5.85085 60.2326 5.75986 60.1628 5.8656C60.1628 5.8656 60.0629 5.92462 60.121 5.82134C60.121 5.82134 60.2349 5.67133 60.1071 5.4746C60.1071 5.4746 59.9653 5.27786 59.8072 5.41557C59.8072 5.41557 59.7793 5.47459 59.7793 5.55083C59.7793 5.55083 59.7236 5.59509 59.7236 5.50656C59.7236 5.50656 59.8096 5.2213 59.4958 5.03932C59.4958 5.03932 59.2262 4.88931 59.1402 5.25081C59.1402 5.25081 59.1123 5.3418 59.0844 5.25081C59.0844 5.25081 59.1704 4.83029 58.7706 4.78357C58.7706 4.78357 58.4871 4.7393 58.429 5.08359C58.429 5.08359 58.3871 5.17458 58.3732 5.08359C58.3732 5.08359 58.3871 4.58683 57.8456 4.60159C57.8456 4.60159 57.476 4.61634 57.404 4.97784C57.404 4.97784 57.3621 5.32459 57.7038 5.41557C57.7038 5.41557 57.5899 5.00981 57.9037 5.00981C57.9037 5.00981 58.0733 5.00981 58.0896 5.28032C58.0896 5.28032 58.1036 5.45984 57.82 5.64182L57.6643 5.73281L57.7201 5.91233C57.7201 5.91233 58.2174 5.47459 58.845 5.50656C58.845 5.50656 59.5702 5.4623 60.1675 6.10906L60.1628 6.1066Z" fill="#E0353E"/>
<path d="M60.689 6.78353C60.689 6.78353 60.4612 6.70729 60.3194 6.43678C60.3194 6.43678 60.1056 5.87855 59.3665 5.65477C59.3665 5.65477 58.5971 5.29327 57.7441 5.95479L57.772 6.15152C57.772 6.15152 58.0858 5.79002 58.6413 5.79002C58.6413 5.79002 59.2665 5.77527 59.2665 6.28677C59.2665 6.28677 59.2805 6.51302 59.0248 6.60401C59.0248 6.60401 58.8551 6.66303 58.6971 6.58925C58.6971 6.58925 58.7691 6.85976 59.0666 6.87452C59.0666 6.87452 59.4501 6.88927 59.5361 6.52777C59.5361 6.52777 59.5501 6.10725 59.8057 6.15152C59.8057 6.15152 59.9475 6.13676 60.2032 6.45154C60.2032 6.45154 60.417 6.75156 60.6866 6.78353H60.689Z" fill="#E0353E"/>
<path d="M58.5687 5.8492C58.5687 5.8492 58.0853 5.8492 57.7715 6.22634L57.7994 6.45312C57.7994 6.45312 58.069 5.96998 58.5687 5.8492Z" fill="#E0353E"/>
<path d="M57.8157 7.25072C57.8157 7.25072 57.7878 6.33099 57.6158 5.66947C57.6158 5.66947 57.5438 5.48995 57.388 5.54897C57.388 5.54897 57.2463 5.57848 57.2741 5.77521C57.2741 5.77521 57.4601 6.51297 57.4601 7.25318H57.8157V7.25072Z" fill="#E0353E"/>
<path d="M57.4011 7.05509L57.3018 6.87464L57.3873 6.75352C57.3873 6.75352 57.4011 6.91913 57.4011 7.05509Z" fill="#E0353E"/>
<path d="M57.1602 6.53992C57.1602 6.53992 57.2743 6.5695 57.3023 6.64592C57.3023 6.64592 57.2883 6.69029 57.2161 6.7667L57.2883 6.8579C57.2883 6.8579 57.3746 6.75191 57.3885 6.63113C57.3885 6.63113 57.3606 6.52513 57.2324 6.46597L57.1602 6.54239V6.53992Z" fill="#E0353E"/>
<path d="M57.3716 6.52956L57.2461 6.43723L57.3305 6.29999C57.3305 6.29999 57.3579 6.42226 57.3716 6.52956Z" fill="#E0353E"/>
<path d="M57.2472 6.677C57.2472 6.677 57.2612 6.64742 57.2332 6.61783C57.2332 6.61783 57.1913 6.58824 57.119 6.58824C57.119 6.58824 57.0911 6.58824 57.0631 6.61783L56.9629 6.69426C56.9629 6.69426 57.0188 6.66468 57.105 6.70906C57.105 6.70906 57.147 6.75344 57.1913 6.73865C57.1913 6.73865 57.2192 6.72385 57.2472 6.67947V6.677Z" fill="#E0353E"/>
<path d="M57.2298 5.78978C57.2298 5.78978 57.3019 6.00146 57.3158 6.2279C57.3158 6.2279 57.1462 6.72509 56.4466 6.81616L56.4326 6.69555C56.4326 6.69555 56.8463 6.58972 57.0299 6.3485C57.0299 6.3485 57.1996 6.1516 57.1857 5.80701L57.2275 5.79224L57.2298 5.78978Z" fill="#E0353E"/>
<path d="M56.9602 5.57802C56.9602 5.57802 57.1462 5.59278 57.1462 5.9103C57.1462 5.9103 57.1183 6.24258 56.8905 6.42226C56.8905 6.42226 56.6906 6.5724 56.421 6.6487L56.4071 6.55763C56.4071 6.55763 56.5489 6.51333 56.6348 6.43702C56.6348 6.43702 56.6767 6.37795 56.607 6.39272C56.607 6.39272 56.4931 6.46902 56.3931 6.51333L56.3652 6.42226C56.3652 6.42226 56.6348 6.28688 56.7789 6.07521L56.8347 6.13428C56.8347 6.13428 56.8766 6.14905 56.8626 6.10474C56.8626 6.10474 56.7348 6.02844 56.7487 5.81923C56.7487 5.81923 56.7627 5.56325 56.9626 5.57802H56.9602Z" fill="#E0353E"/>
<path d="M57.4019 7.25193C57.4019 7.25193 57.4019 7.0991 57.2741 6.91916C57.2741 6.91916 57.1741 6.75401 56.9463 6.73922C56.9463 6.73922 56.8603 6.73922 56.7046 6.79838C56.7046 6.79838 56.5768 6.85753 56.4629 6.85753V7.03748C56.4629 7.03748 56.6326 6.93148 56.8185 6.93148C56.8185 6.93148 57.1323 6.91669 57.2462 7.24946H57.4019V7.25193Z" fill="#E0353E"/>
<path d="M56.4189 7.25743H56.0772C56.0772 7.25743 56.0912 6.81192 55.9633 6.46733C55.9633 6.46733 55.8773 6.28766 56.0191 6.21135C56.0191 6.21135 56.147 6.12028 56.2608 6.28766C56.2608 6.28766 56.4166 6.62732 56.4166 7.25989L56.4189 7.25743Z" fill="#E0353E"/>
<path d="M56.4769 7.14758V7.08769C56.4769 7.08769 56.6187 6.99537 56.8325 6.99537C56.8325 6.99537 57.1022 7.01034 57.2021 7.25737H57.1022C57.1022 7.25737 57.0022 7.05775 56.7744 7.05775C56.7744 7.05775 56.6187 7.05775 56.4746 7.15007L56.4769 7.14758Z" fill="#E0353E"/>
<path d="M57.0599 7.25497H56.874C56.874 7.25497 56.874 7.20956 56.8182 7.20956H56.4766C56.4766 7.20956 56.5904 7.13137 56.7764 7.11623C56.7764 7.11623 56.9763 7.1238 57.0599 7.25497Z" fill="#E0353E"/>
<path d="M61.1096 7.25693H60.8539L60.668 7.3792V7.4865L61.1096 7.25693Z" fill="#E0353E"/>
<path d="M60.6171 7.46362L60.4609 7.25146H60.5321L60.6171 7.37234V7.46362Z" fill="#E0353E"/>
<path d="M60.7874 7.25146L60.6459 7.34368L60.5879 7.25146H60.7874Z" fill="#E0353E"/>
<path d="M60.5396 7.4392C60.5396 7.4392 60.1561 7.37931 59.7564 7.40925C59.7564 7.40925 59.2869 7.40925 59.001 7.5465V7.42423L59.1706 7.28698H60.4234L60.5373 7.4392H60.5396Z" fill="#E0353E"/>
<path d="M59.1353 7.25146L58.9961 7.37479V7.25146H59.1353Z" fill="#E0353E"/>
<path d="M58.8105 7.25146L58.9497 7.37479V7.25146H58.8105Z" fill="#E0353E"/>
<path d="M58.9528 7.55139V7.43027L58.7668 7.27948H57.8418V7.53655C57.8418 7.53655 58.0835 7.4451 58.553 7.45993C58.553 7.45993 58.8087 7.47476 58.9505 7.55139H58.9528Z" fill="#E0353E"/>
<path d="M61.116 7.97481C61.116 7.97481 60.8742 7.86881 60.6465 7.97481C60.6465 7.97481 60.4605 8.0808 60.3629 8.35195L60.249 8.27553C60.249 8.27553 60.4907 7.77761 60.7604 7.74803C60.7604 7.74803 61.016 7.70366 61.116 7.97481Z" fill="#E0353E"/>
<path d="M60.1628 8.39404C60.1628 8.39404 60.2349 8.27355 60.3046 8.34978C60.3046 8.34978 60.4046 8.48503 60.3046 8.6498C60.3046 8.6498 60.2326 8.74079 60.1628 8.63504C60.1628 8.63504 60.0629 8.57602 60.121 8.67931C60.121 8.67931 60.2349 8.82932 60.1071 9.02605C60.1071 9.02605 59.9653 9.22279 59.8072 9.08507C59.8072 9.08507 59.7793 9.02605 59.7793 8.94982C59.7793 8.94982 59.7236 8.90555 59.7236 8.99408C59.7236 8.99408 59.8096 9.27935 59.4958 9.46133C59.4958 9.46133 59.2262 9.61134 59.1402 9.24984C59.1402 9.24984 59.1123 9.15885 59.0844 9.24984C59.0844 9.24984 59.1704 9.67036 58.7706 9.71708C58.7706 9.71708 58.4871 9.76135 58.429 9.41706C58.429 9.41706 58.3871 9.32607 58.3732 9.41706C58.3732 9.41706 58.3871 9.91382 57.8456 9.89906C57.8456 9.89906 57.476 9.88431 57.404 9.52281C57.404 9.52281 57.3621 9.17606 57.7038 9.08507C57.7038 9.08507 57.5899 9.49084 57.9037 9.49084C57.9037 9.49084 58.0733 9.49084 58.0896 9.22033C58.0896 9.22033 58.1036 9.04081 57.82 8.85883L57.6643 8.76784L57.7201 8.58832C57.7201 8.58832 58.2174 9.02605 58.845 8.99408C58.845 8.99408 59.5702 9.03835 60.1675 8.39159L60.1628 8.39404Z" fill="#E0353E"/>
<path d="M60.689 7.71618C60.689 7.71618 60.4612 7.79241 60.3194 8.06292C60.3194 8.06292 60.1056 8.62116 59.3665 8.84494C59.3665 8.84494 58.5971 9.20644 57.7441 8.54492L57.772 8.34819C57.772 8.34819 58.0858 8.70969 58.6413 8.70969C58.6413 8.70969 59.2665 8.72444 59.2665 8.21293C59.2665 8.21293 59.2805 7.98669 59.0248 7.8957C59.0248 7.8957 58.8551 7.83668 58.6971 7.91046C58.6971 7.91046 58.7691 7.63995 59.0666 7.62519C59.0666 7.62519 59.4501 7.61044 59.5361 7.97193C59.5361 7.97193 59.5501 8.39245 59.8057 8.34819C59.8057 8.34819 59.9475 8.36294 60.2032 8.04817C60.2032 8.04817 60.417 7.74815 60.6866 7.71618H60.689Z" fill="#E0353E"/>
<path d="M58.5687 8.65046C58.5687 8.65046 58.0853 8.65046 57.7715 8.27332L57.7994 8.04654C57.7994 8.04654 58.069 8.52968 58.5687 8.65046Z" fill="#E0353E"/>
<path d="M57.8157 7.25146C57.8157 7.25146 57.7878 8.16874 57.6158 8.83026C57.6158 8.83026 57.5438 9.00978 57.388 8.95076C57.388 8.95076 57.2463 8.92125 57.2741 8.72451C57.2741 8.72451 57.4601 7.98676 57.4601 7.25146H57.8157Z" fill="#E0353E"/>
<path d="M57.4011 7.44616L57.3018 7.6266L57.3873 7.74772C57.3873 7.74772 57.4011 7.58211 57.4011 7.44616Z" fill="#E0353E"/>
<path d="M57.1602 7.95879C57.1602 7.95879 57.2743 7.92921 57.3023 7.85279C57.3023 7.85279 57.2883 7.80842 57.2161 7.73201L57.2883 7.6408C57.2883 7.6408 57.3746 7.7468 57.3885 7.86758C57.3885 7.86758 57.3606 7.97358 57.2324 8.03273L57.1602 7.95632V7.95879Z" fill="#E0353E"/>
<path d="M57.3716 7.97277L57.2461 8.06509L57.3305 8.20233C57.3305 8.20233 57.3579 8.08006 57.3716 7.97277Z" fill="#E0353E"/>
<path d="M57.2472 7.82018C57.2472 7.82018 57.2612 7.84977 57.2332 7.87936C57.2332 7.87936 57.1913 7.90894 57.119 7.90894C57.119 7.90894 57.0911 7.90895 57.0631 7.87936L56.9629 7.80292C56.9629 7.80292 57.0188 7.83251 57.105 7.78812C57.105 7.78812 57.147 7.74374 57.1913 7.75854C57.1913 7.75854 57.2192 7.77333 57.2472 7.81771V7.82018Z" fill="#E0353E"/>
<path d="M57.2298 8.71364C57.2298 8.71364 57.3019 8.50196 57.3158 8.27552C57.3158 8.27552 57.1462 7.77833 56.4466 7.68726L56.4326 7.80786C56.4326 7.80786 56.8463 7.9137 57.0299 8.15491C57.0299 8.15491 57.1996 8.35182 57.1857 8.69641L57.2275 8.71117L57.2298 8.71364Z" fill="#E0353E"/>
<path d="M56.9602 8.92183C56.9602 8.92183 57.1462 8.90707 57.1462 8.58955C57.1462 8.58955 57.1183 8.25727 56.8905 8.07759C56.8905 8.07759 56.6906 7.92745 56.421 7.85115L56.4071 7.94222C56.4071 7.94222 56.5489 7.98652 56.6348 8.06283C56.6348 8.06283 56.6767 8.1219 56.607 8.10713C56.607 8.10713 56.4931 8.03083 56.3931 7.98652L56.3652 8.07759C56.3652 8.07759 56.6348 8.21297 56.7789 8.42464L56.8347 8.36557C56.8347 8.36557 56.8766 8.3508 56.8626 8.39511C56.8626 8.39511 56.7348 8.47141 56.7487 8.68062C56.7487 8.68062 56.7627 8.9366 56.9626 8.92183H56.9602Z" fill="#E0353E"/>
<path d="M57.4019 7.25146C57.4019 7.25146 57.4019 7.40183 57.2741 7.58177C57.2741 7.58177 57.1741 7.74692 56.9463 7.76171C56.9463 7.76171 56.8603 7.76171 56.7046 7.70255C56.7046 7.70255 56.5768 7.6434 56.4629 7.6434V7.46345C56.4629 7.46345 56.6326 7.56945 56.8185 7.56945C56.8185 7.56945 57.1323 7.58424 57.2462 7.25393H57.4019V7.25146Z" fill="#E0353E"/>
<path d="M56.4189 7.2423H56.0772C56.0772 7.2423 56.0912 7.68534 55.9633 8.03239C55.9633 8.03239 55.8773 8.21207 56.0191 8.28837C56.0191 8.28837 56.147 8.37944 56.2608 8.21207C56.2608 8.21207 56.4166 7.8724 56.4166 7.23984L56.4189 7.2423Z" fill="#E0353E"/>
<path d="M56.4766 7.35696V7.41685C56.4766 7.41685 56.6183 7.50918 56.8322 7.50918C56.8322 7.50918 57.1018 7.4942 57.204 7.25216H57.1041C57.1041 7.25216 57.0042 7.44929 56.7764 7.44929C56.7764 7.44929 56.6207 7.44929 56.4766 7.35696Z" fill="#E0353E"/>
<path d="M57.0599 7.25146H56.874C56.874 7.25146 56.874 7.29939 56.8182 7.29939H56.4766C56.4766 7.29939 56.5904 7.37758 56.7764 7.39272C56.7764 7.39272 56.9763 7.37758 57.0623 7.25399L57.0599 7.25146Z" fill="#E0353E"/>
<path d="M54.2734 14.4811V14.21L54.3871 14.0128H54.4869L54.2734 14.4811Z" fill="#E0353E"/>
<path d="M54.4652 13.9614L54.2656 13.7935V13.8701L54.3793 13.9614H54.4652Z" fill="#E0353E"/>
<path d="M54.2656 14.1391L54.3531 13.9887L54.2656 13.9294V14.1391Z" fill="#E0353E"/>
<path d="M54.4449 13.8758C54.4449 13.8758 54.389 13.47 54.4169 13.047C54.4169 13.047 54.4169 12.5503 54.5451 12.2478H54.4309L54.3027 12.4273V13.7528L54.4449 13.8733V13.8758Z" fill="#E0353E"/>
<path d="M54.2656 12.3934L54.3789 12.243H54.2656V12.3934Z" fill="#E0353E"/>
<path d="M54.2656 12.047L54.3789 12.1974H54.2656V12.047Z" fill="#E0353E"/>
<path d="M54.5532 12.1996H54.439L54.2969 12.0027V11.0231H54.5392C54.5392 11.0231 54.453 11.2791 54.467 11.7763C54.467 11.7763 54.481 12.047 54.5532 12.1972V12.1996Z" fill="#E0353E"/>
<path d="M54.9498 14.4875C54.9498 14.4875 54.8498 14.2316 54.9498 13.9904C54.9498 13.9904 55.0497 13.7934 55.3054 13.6901L55.2333 13.5695C55.2333 13.5695 54.7638 13.8254 54.7359 14.111C54.7359 14.111 54.6941 14.3817 54.9498 14.4875Z" fill="#E0353E"/>
<path d="M55.3499 13.4781C55.3499 13.4781 55.236 13.5543 55.3081 13.6281C55.3081 13.6281 55.4359 13.7338 55.5916 13.6281C55.5916 13.6281 55.6776 13.5519 55.5777 13.4781C55.5777 13.4781 55.5219 13.3723 55.6195 13.4338C55.6195 13.4338 55.7613 13.5543 55.9472 13.4191C55.9472 13.4191 56.1332 13.269 56.003 13.1018C56.003 13.1018 55.9472 13.0723 55.8752 13.0723C55.8752 13.0723 55.8333 13.0133 55.917 13.0133C55.917 13.0133 56.1866 13.1043 56.3586 12.7723C56.3586 12.7723 56.5004 12.487 56.1587 12.396C56.1587 12.396 56.0727 12.3665 56.1587 12.337C56.1587 12.337 56.5562 12.428 56.6004 12.005C56.6004 12.005 56.6422 11.705 56.3168 11.6435C56.3168 11.6435 56.2308 11.5993 56.3168 11.5845C56.3168 11.5845 56.7863 11.5993 56.7723 11.0263C56.7723 11.0263 56.7584 10.6353 56.4167 10.559C56.4167 10.559 56.089 10.5148 56.003 10.8763C56.003 10.8763 56.3865 10.7558 56.3865 11.0878C56.3865 11.0878 56.3865 11.2673 56.1309 11.2845C56.1309 11.2845 55.9612 11.2992 55.7892 10.9992L55.7032 10.8345L55.5335 10.8935C55.5335 10.8935 55.9472 11.4197 55.917 12.0837C55.917 12.0837 55.9589 12.851 55.3476 13.483L55.3499 13.4781Z" fill="#E0353E"/>
<path d="M54.7072 14.0337C54.7072 14.0337 54.7792 13.7927 55.0349 13.6427C55.0349 13.6427 55.5625 13.4165 55.774 12.6345C55.774 12.6345 56.1157 11.8205 55.4904 10.9179L55.3045 10.9475C55.3045 10.9475 55.6462 11.2794 55.6462 11.8672C55.6462 11.8672 55.6601 12.5287 55.1767 12.5287C55.1767 12.5287 54.9628 12.5435 54.8768 12.273C54.8768 12.273 54.8211 12.0934 54.8908 11.9262C54.8908 11.9262 54.6351 12.0024 54.6212 12.3172C54.6212 12.3172 54.6072 12.723 54.9489 12.814C54.9489 12.814 55.3463 12.8287 55.3045 13.0992C55.3045 13.0992 55.3184 13.2492 55.0209 13.5198C55.0209 13.5198 54.7374 13.746 54.7072 14.0313V14.0337Z" fill="#E0353E"/>
<path d="M55.5909 11.7915C55.5909 11.7915 55.5909 11.2796 55.2353 10.9473L55.0215 10.9768C55.0215 10.9768 55.477 11.2624 55.5909 11.7915Z" fill="#E0353E"/>
<path d="M54.266 10.9962C54.266 10.9962 55.1353 10.9666 55.7605 10.7842C55.7605 10.7842 55.9302 10.7078 55.8744 10.5426C55.8744 10.5426 55.8465 10.3922 55.6605 10.4218C55.6605 10.4218 54.9633 10.619 54.2637 10.619V10.9962H54.266Z" fill="#E0353E"/>
<path d="M54.4521 10.556L54.6223 10.4494L54.7365 10.5411C54.7365 10.5411 54.5803 10.556 54.4521 10.556Z" fill="#E0353E"/>
<path d="M54.9364 10.3025C54.9364 10.3025 54.9084 10.4248 54.8362 10.4547C54.8362 10.4547 54.7942 10.4398 54.722 10.3624L54.6357 10.4398C54.6357 10.4398 54.7359 10.5321 54.8501 10.5471C54.8501 10.5471 54.9503 10.5171 55.0063 10.3799L54.934 10.3025H54.9364Z" fill="#E0353E"/>
<path d="M54.9492 10.5308L55.0351 10.392L55.1627 10.4854C55.1627 10.4854 55.049 10.5156 54.9492 10.5308Z" fill="#E0353E"/>
<path d="M54.8069 10.3944C54.8069 10.3944 54.8343 10.4093 54.8617 10.3796C54.8617 10.3796 54.889 10.3351 54.889 10.2585C54.889 10.2585 54.889 10.2288 54.8617 10.1992L54.7909 10.0929C54.7909 10.0929 54.8183 10.1522 54.7772 10.2436C54.7772 10.2436 54.7362 10.2881 54.7499 10.3351C54.7499 10.3351 54.7636 10.3648 54.8046 10.3944H54.8069Z" fill="#E0353E"/>
<path d="M55.6469 10.3756C55.6469 10.3756 55.4471 10.4519 55.2332 10.4667C55.2332 10.4667 54.7637 10.287 54.6777 9.54615L54.7916 9.53138C54.7916 9.53138 54.8916 9.9695 55.1193 10.1639C55.1193 10.1639 55.3053 10.3436 55.6307 10.3289L55.6446 10.3732L55.6469 10.3756Z" fill="#E0353E"/>
<path d="M55.847 10.0914C55.847 10.0914 55.833 10.2886 55.5332 10.2886C55.5332 10.2886 55.2194 10.259 55.0498 10.0174C55.0498 10.0174 54.908 9.80543 54.8359 9.5195L54.9219 9.50471C54.9219 9.50471 54.9638 9.65507 55.0358 9.74628C55.0358 9.74628 55.0916 9.79064 55.0777 9.7167C55.0777 9.7167 55.0056 9.59591 54.9638 9.48992L55.0498 9.46034C55.0498 9.46034 55.1776 9.74628 55.3775 9.8991L55.3217 9.95826C55.3217 9.95826 55.3078 10.0026 55.3496 9.98784C55.3496 9.98784 55.4216 9.85227 55.6192 9.86706C55.6192 9.86706 55.8609 9.88185 55.847 10.0938V10.0914Z" fill="#E0353E"/>
<path d="M54.2656 10.5585C54.2656 10.5585 54.4097 10.5585 54.5794 10.4232C54.5794 10.4232 54.7351 10.3173 54.7491 10.0761C54.7491 10.0761 54.7491 9.98506 54.6933 9.82015C54.6933 9.82015 54.6375 9.68477 54.6375 9.56417H54.4678C54.4678 9.56417 54.5678 9.74384 54.5678 9.94075C54.5678 9.94075 54.5817 10.273 54.268 10.3936V10.5585H54.2656Z" fill="#E0353E"/>
<path d="M54.2592 9.51804V9.15569C54.2592 9.15569 54.6798 9.17048 55.0052 9.03491C55.0052 9.03491 55.1749 8.9437 55.247 9.09407C55.247 9.09407 55.333 9.22964 55.1749 9.35042C55.1749 9.35042 54.8542 9.51558 54.2568 9.51558L54.2592 9.51804Z" fill="#E0353E"/>
<path d="M54.3662 9.57826H54.4221C54.4221 9.57826 54.5084 9.72862 54.5084 9.9554C54.5084 9.9554 54.4944 10.2413 54.2637 10.3473V10.2413C54.2637 10.2413 54.4501 10.1353 54.4501 9.89378C54.4501 9.89378 54.4501 9.72862 54.3639 9.57579L54.3662 9.57826Z" fill="#E0353E"/>
<path d="M54.2656 10.1951V9.99795C54.2656 9.99795 54.3067 9.99795 54.3067 9.93879V9.57644C54.3067 9.57644 54.3774 9.69722 54.3911 9.89442C54.3911 9.89442 54.3843 10.1064 54.2656 10.1951Z" fill="#E0353E"/>
<path d="M54.2584 14.4811V14.21L54.1447 14.0128H54.0449L54.2584 14.4811Z" fill="#E0353E"/>
<path d="M54.0684 13.9614L54.2656 13.7935V13.8701L54.1519 13.9614H54.0684Z" fill="#E0353E"/>
<path d="M54.2677 14.1391L54.1826 13.9887L54.2677 13.9294V14.1391Z" fill="#E0353E"/>
<path d="M54.0895 13.8758C54.0895 13.8758 54.1454 13.47 54.1174 13.047C54.1174 13.047 54.1174 12.5503 53.9893 12.2478H54.1034L54.2316 12.4273V13.7528L54.0895 13.8733V13.8758Z" fill="#E0353E"/>
<path d="M54.2656 12.3934L54.1523 12.243H54.2656V12.3934Z" fill="#E0353E"/>
<path d="M54.2656 12.047L54.1523 12.1974H54.2656V12.047Z" fill="#E0353E"/>
<path d="M53.9824 12.1996H54.0966L54.2388 12.0027V11.0231H53.9964C53.9964 11.0231 54.0826 11.2791 54.0686 11.7763C54.0686 11.7763 54.0547 12.047 53.9824 12.1972V12.1996Z" fill="#E0353E"/>
<path d="M53.5831 14.4875C53.5831 14.4875 53.6831 14.2316 53.5831 13.9904C53.5831 13.9904 53.4832 13.7934 53.2275 13.6901L53.2996 13.5695C53.2996 13.5695 53.7691 13.8254 53.797 14.111C53.797 14.111 53.8388 14.3817 53.5831 14.4875Z" fill="#E0353E"/>
<path d="M53.1854 13.4781C53.1854 13.4781 53.2993 13.5543 53.2273 13.6281C53.2273 13.6281 53.0994 13.7338 52.9437 13.6281C52.9437 13.6281 52.8577 13.5519 52.9577 13.4781C52.9577 13.4781 53.0134 13.3723 52.9158 13.4338C52.9158 13.4338 52.774 13.5543 52.5881 13.4191C52.5881 13.4191 52.4022 13.269 52.5323 13.1018C52.5323 13.1018 52.5881 13.0723 52.6602 13.0723C52.6602 13.0723 52.702 13.0133 52.6183 13.0133C52.6183 13.0133 52.3487 13.1043 52.1767 12.7723C52.1767 12.7723 52.0349 12.487 52.3766 12.396C52.3766 12.396 52.4626 12.3665 52.3766 12.337C52.3766 12.337 51.9792 12.428 51.935 12.005C51.935 12.005 51.8932 11.705 52.2185 11.6435C52.2185 11.6435 52.3045 11.5993 52.2185 11.5845C52.2185 11.5845 51.7491 11.5993 51.763 11.0263C51.763 11.0263 51.7769 10.6353 52.1186 10.559C52.1186 10.559 52.4463 10.5148 52.5323 10.8763C52.5323 10.8763 52.1488 10.7558 52.1488 11.0878C52.1488 11.0878 52.1488 11.2673 52.4045 11.2845C52.4045 11.2845 52.5742 11.2992 52.7462 10.9992L52.8322 10.8345L53.0018 10.8935C53.0018 10.8935 52.5881 11.4197 52.6183 12.0837C52.6183 12.0837 52.5765 12.851 53.1878 13.483L53.1854 13.4781Z" fill="#E0353E"/>
<path d="M53.8241 14.0337C53.8241 14.0337 53.752 13.7927 53.4963 13.6427C53.4963 13.6427 52.9687 13.4165 52.7572 12.6345C52.7572 12.6345 52.4156 11.8205 53.0408 10.9179L53.2267 10.9475C53.2267 10.9475 52.8851 11.2794 52.8851 11.8672C52.8851 11.8672 52.8711 12.5287 53.3546 12.5287C53.3546 12.5287 53.5684 12.5435 53.6544 12.273C53.6544 12.273 53.7102 12.0934 53.6404 11.9262C53.6404 11.9262 53.8961 12.0024 53.9101 12.3172C53.9101 12.3172 53.924 12.723 53.5823 12.814C53.5823 12.814 53.1849 12.8287 53.2267 13.0992C53.2267 13.0992 53.2128 13.2492 53.5103 13.5198C53.5103 13.5198 53.7938 13.746 53.8241 14.0313V14.0337Z" fill="#E0353E"/>
<path d="M52.9434 11.7915C52.9434 11.7915 52.9434 11.2796 53.299 10.9473L53.5128 10.9768C53.5128 10.9768 53.0572 11.2624 52.9434 11.7915Z" fill="#E0353E"/>
<path d="M54.2657 10.9962C54.2657 10.9962 53.3988 10.9666 52.7736 10.7842C52.7736 10.7842 52.6039 10.7078 52.6597 10.5426C52.6597 10.5426 52.6876 10.3922 52.8735 10.4218C52.8735 10.4218 53.5708 10.619 54.2657 10.619V10.9962Z" fill="#E0353E"/>
<path d="M54.0831 10.556L53.913 10.4494L53.7988 10.5411C53.7988 10.5411 53.955 10.556 54.0831 10.556Z" fill="#E0353E"/>
<path d="M53.5992 10.3025C53.5992 10.3025 53.6272 10.4248 53.6994 10.4547C53.6994 10.4547 53.7414 10.4398 53.8136 10.3624L53.8998 10.4398C53.8998 10.4398 53.7996 10.5321 53.6854 10.5471C53.6854 10.5471 53.5852 10.5171 53.5293 10.3799L53.6015 10.3025H53.5992Z" fill="#E0353E"/>
<path d="M53.5826 10.5308L53.4967 10.392L53.3691 10.4854C53.3691 10.4854 53.4828 10.5156 53.5826 10.5308Z" fill="#E0353E"/>
<path d="M53.7257 10.3944C53.7257 10.3944 53.6983 10.4093 53.6709 10.3796C53.6709 10.3796 53.6436 10.3351 53.6436 10.2585C53.6436 10.2585 53.6436 10.2288 53.6709 10.1992L53.7417 10.0929C53.7417 10.0929 53.7143 10.1522 53.7553 10.2436C53.7553 10.2436 53.7964 10.2881 53.7827 10.3351C53.7827 10.3351 53.769 10.3648 53.728 10.3944H53.7257Z" fill="#E0353E"/>
<path d="M52.8857 10.3756C52.8857 10.3756 53.0856 10.4519 53.2995 10.4667C53.2995 10.4667 53.769 10.287 53.855 9.54615L53.7411 9.53138C53.7411 9.53138 53.6411 9.9695 53.4133 10.1639C53.4133 10.1639 53.2274 10.3436 52.902 10.3289L52.8881 10.3732L52.8857 10.3756Z" fill="#E0353E"/>
<path d="M52.6881 10.0914C52.6881 10.0914 52.702 10.2886 53.0019 10.2886C53.0019 10.2886 53.3156 10.259 53.4853 10.0174C53.4853 10.0174 53.6271 9.80543 53.6991 9.5195L53.6131 9.50471C53.6131 9.50471 53.5713 9.65507 53.4992 9.74628C53.4992 9.74628 53.4435 9.79064 53.4574 9.7167C53.4574 9.7167 53.5295 9.59591 53.5713 9.48992L53.4853 9.46034C53.4853 9.46034 53.3575 9.74628 53.1576 9.8991L53.2134 9.95826C53.2134 9.95826 53.2273 10.0026 53.1855 9.98784C53.1855 9.98784 53.1134 9.85227 52.9159 9.86706C52.9159 9.86706 52.6741 9.88185 52.6881 10.0938V10.0914Z" fill="#E0353E"/>
<path d="M54.2663 10.5585C54.2663 10.5585 54.1245 10.5585 53.9548 10.4232C53.9548 10.4232 53.7991 10.3173 53.7852 10.0761C53.7852 10.0761 53.7852 9.98506 53.8409 9.82015C53.8409 9.82015 53.8967 9.68477 53.8967 9.56417H54.0664C54.0664 9.56417 53.9664 9.74384 53.9664 9.94075C53.9664 9.94075 53.9525 10.273 54.2639 10.3936V10.5585H54.2663Z" fill="#E0353E"/>
<path d="M54.2729 9.51804V9.15569C54.2729 9.15569 53.8545 9.17048 53.5268 9.03491C53.5268 9.03491 53.3571 8.9437 53.2851 9.09407C53.2851 9.09407 53.1991 9.22964 53.3571 9.35042C53.3571 9.35042 53.6779 9.51558 54.2752 9.51558L54.2729 9.51804Z" fill="#E0353E"/>
<path d="M54.1666 9.57644H54.1106C54.1106 9.57644 54.0244 9.7268 54.0244 9.95358C54.0244 9.95358 54.0384 10.2395 54.2644 10.348V10.242C54.2644 10.242 54.0803 10.136 54.0803 9.89442C54.0803 9.89442 54.0803 9.72927 54.1666 9.57644Z" fill="#E0353E"/>
<path d="M54.2664 10.1951V9.99795C54.2664 9.99795 54.2231 9.99795 54.2231 9.93879V9.57644C54.2231 9.57644 54.1524 9.69722 54.1387 9.89442C54.1387 9.89442 54.1524 10.1064 54.2641 10.1976L54.2664 10.1951Z" fill="#E0353E"/>
<path d="M47.4238 7.25693H47.6818L47.8654 7.3792V7.4865L47.4238 7.25693Z" fill="#E0353E"/>
<path d="M47.917 7.46362L48.0708 7.25146H47.9996L47.917 7.37234V7.46362Z" fill="#E0353E"/>
<path d="M47.7451 7.25146L47.8866 7.34368L47.9446 7.25146H47.7451Z" fill="#E0353E"/>
<path d="M47.9932 7.4392C47.9932 7.4392 48.3767 7.37931 48.7764 7.40925C48.7764 7.40925 49.2459 7.40925 49.5318 7.5465V7.42423L49.3621 7.28698H48.1094L47.9955 7.4392H47.9932Z" fill="#E0353E"/>
<path d="M49.3945 7.25146L49.536 7.37479V7.25146H49.3945Z" fill="#E0353E"/>
<path d="M49.7202 7.25146L49.5811 7.37479V7.25146H49.7202Z" fill="#E0353E"/>
<path d="M49.5811 7.55139V7.43027L49.767 7.27948H50.692V7.53655C50.692 7.53655 50.4503 7.4451 49.9808 7.45993C49.9808 7.45993 49.7252 7.47476 49.5834 7.55139H49.5811Z" fill="#E0353E"/>
<path d="M47.417 7.97481C47.417 7.97481 47.6587 7.86881 47.8865 7.97481C47.8865 7.97481 48.0724 8.0808 48.17 8.35195L48.2839 8.27553C48.2839 8.27553 48.0422 7.77761 47.7726 7.74803C47.7726 7.74803 47.5169 7.70366 47.417 7.97481Z" fill="#E0353E"/>
<path d="M48.3717 8.39404C48.3717 8.39404 48.2997 8.27355 48.23 8.34978C48.23 8.34978 48.13 8.48503 48.23 8.6498C48.23 8.6498 48.302 8.74079 48.3717 8.63504C48.3717 8.63504 48.4717 8.57602 48.4136 8.67931C48.4136 8.67931 48.2997 8.82932 48.4275 9.02605C48.4275 9.02605 48.5693 9.22279 48.7274 9.08507C48.7274 9.08507 48.7552 9.02605 48.7552 8.94982C48.7552 8.94982 48.811 8.90555 48.811 8.99408C48.811 8.99408 48.725 9.27935 49.0388 9.46133C49.0388 9.46133 49.3084 9.61134 49.3944 9.24984C49.3944 9.24984 49.4223 9.15885 49.4502 9.24984C49.4502 9.24984 49.3642 9.67036 49.764 9.71708C49.764 9.71708 50.0475 9.76135 50.1056 9.41706C50.1056 9.41706 50.1475 9.32607 50.1614 9.41706C50.1614 9.41706 50.1475 9.91382 50.689 9.89906C50.689 9.89906 51.0586 9.88431 51.1306 9.52281C51.1306 9.52281 51.1725 9.17606 50.8308 9.08507C50.8308 9.08507 50.9447 9.49084 50.6309 9.49084C50.6309 9.49084 50.4612 9.49084 50.445 9.22033C50.445 9.22033 50.431 9.04081 50.7146 8.85883L50.8703 8.76784L50.8145 8.58832C50.8145 8.58832 50.3171 9.02605 49.6896 8.99408C49.6896 8.99408 48.9644 9.03835 48.3671 8.39159L48.3717 8.39404Z" fill="#E0353E"/>
<path d="M47.8447 7.71618C47.8447 7.71618 48.0725 7.79241 48.2143 8.06292C48.2143 8.06292 48.4281 8.62116 49.1672 8.84494C49.1672 8.84494 49.9365 9.20644 50.7895 8.54492L50.7617 8.34819C50.7617 8.34819 50.4479 8.70969 49.8924 8.70969C49.8924 8.70969 49.2672 8.72444 49.2672 8.21293C49.2672 8.21293 49.2532 7.98669 49.5089 7.8957C49.5089 7.8957 49.6786 7.83668 49.8366 7.91046C49.8366 7.91046 49.7646 7.63995 49.467 7.62519C49.467 7.62519 49.0835 7.61044 48.9975 7.97193C48.9975 7.97193 48.9836 8.39245 48.7279 8.34819C48.7279 8.34819 48.5862 8.36294 48.3305 8.04817C48.3305 8.04817 48.1167 7.74815 47.847 7.71618H47.8447Z" fill="#E0353E"/>
<path d="M49.9639 8.65046C49.9639 8.65046 50.4473 8.65046 50.7611 8.27332L50.7332 8.04654C50.7332 8.04654 50.4636 8.52968 49.9639 8.65046Z" fill="#E0353E"/>
<path d="M50.7197 7.24711C50.7197 7.24711 50.7476 8.16685 50.9196 8.82836C50.9196 8.82836 50.9917 9.00789 51.1474 8.94887C51.1474 8.94887 51.2892 8.91935 51.2613 8.72262C51.2613 8.72262 51.0753 7.98487 51.0753 7.24466H50.7197V7.24711Z" fill="#E0353E"/>
<path d="M51.1338 7.44616L51.2332 7.6266L51.1477 7.74772C51.1477 7.74772 51.1338 7.58211 51.1338 7.44616Z" fill="#E0353E"/>
<path d="M51.3758 7.95879C51.3758 7.95879 51.2616 7.92921 51.2337 7.85279C51.2337 7.85279 51.2477 7.80842 51.3199 7.73201L51.2477 7.6408C51.2477 7.6408 51.1614 7.7468 51.1475 7.86758C51.1475 7.86758 51.1754 7.97358 51.3036 8.03273L51.3758 7.95632V7.95879Z" fill="#E0353E"/>
<path d="M51.1611 7.97277L51.2866 8.06509L51.2022 8.20233C51.2022 8.20233 51.1748 8.08006 51.1611 7.97277Z" fill="#E0353E"/>
<path d="M51.2896 7.82018C51.2896 7.82018 51.2756 7.84977 51.3036 7.87936C51.3036 7.87936 51.3456 7.90894 51.4178 7.90894C51.4178 7.90894 51.4458 7.90895 51.4737 7.87936L51.5739 7.80292C51.5739 7.80292 51.518 7.83251 51.4318 7.78812C51.4318 7.78812 51.3898 7.74374 51.3456 7.75854C51.3456 7.75854 51.3176 7.77333 51.2896 7.81771V7.82018Z" fill="#E0353E"/>
<path d="M51.3028 8.71364C51.3028 8.71364 51.2307 8.50196 51.2168 8.27552C51.2168 8.27552 51.3865 7.77833 52.0861 7.68726L52.1 7.80786C52.1 7.80786 51.6863 7.9137 51.5027 8.15491C51.5027 8.15491 51.333 8.35182 51.347 8.69641L51.3051 8.71117L51.3028 8.71364Z" fill="#E0353E"/>
<path d="M51.5727 8.92183C51.5727 8.92183 51.3867 8.90707 51.3867 8.58955C51.3867 8.58955 51.4146 8.25727 51.6424 8.07759C51.6424 8.07759 51.8423 7.92745 52.1119 7.85115L52.1258 7.94222C52.1258 7.94222 51.984 7.98652 51.8981 8.06283C51.8981 8.06283 51.8562 8.1219 51.9259 8.10713C51.9259 8.10713 52.0398 8.03083 52.1398 7.98652L52.1677 8.07759C52.1677 8.07759 51.8981 8.21297 51.7539 8.42464L51.6982 8.36557C51.6982 8.36557 51.6563 8.3508 51.6703 8.39511C51.6703 8.39511 51.7981 8.47141 51.7842 8.68062C51.7842 8.68062 51.7702 8.9366 51.5703 8.92183H51.5727Z" fill="#E0353E"/>
<path d="M51.1338 7.24739C51.1338 7.24739 51.1338 7.40022 51.2616 7.58016C51.2616 7.58016 51.3616 7.74532 51.5893 7.7601C51.5893 7.7601 51.6753 7.7601 51.8311 7.70095C51.8311 7.70095 51.9589 7.64179 52.0728 7.64179V7.46184C52.0728 7.46184 51.9031 7.56784 51.7172 7.56784C51.7172 7.56784 51.4034 7.58263 51.2895 7.24986H51.1338V7.24739Z" fill="#E0353E"/>
<path d="M52.1143 7.2423H52.4559C52.4559 7.2423 52.442 7.6878 52.5698 8.03239C52.5698 8.03239 52.6558 8.21207 52.514 8.28837C52.514 8.28837 52.3862 8.37944 52.2723 8.21207C52.2723 8.21207 52.1166 7.8724 52.1166 7.23984L52.1143 7.2423Z" fill="#E0353E"/>
<path d="M52.0562 7.35718V7.41707C52.0562 7.41707 51.9144 7.5094 51.7006 7.5094C51.7006 7.5094 51.431 7.49443 51.3311 7.24739H51.431C51.431 7.24739 51.5309 7.44702 51.7587 7.44702C51.7587 7.44702 51.9144 7.44702 52.0585 7.35469L52.0562 7.35718Z" fill="#E0353E"/>
<path d="M51.4727 7.25146H51.6586C51.6586 7.25146 51.6586 7.29687 51.7144 7.29687H52.056C52.056 7.29687 51.9422 7.37506 51.7562 7.3902C51.7562 7.3902 51.5563 7.38263 51.4727 7.25146Z" fill="#E0353E"/>
<path d="M47.4238 7.24604H47.6818L47.8654 7.12377V7.01648L47.4238 7.24604Z" fill="#E0353E"/>
<path d="M47.917 7.03769L48.0708 7.24985H47.9996L47.917 7.12897V7.03769Z" fill="#E0353E"/>
<path d="M47.7451 7.25286L47.8866 7.16065L47.9446 7.25286H47.7451Z" fill="#E0353E"/>
<path d="M47.9932 7.06302C47.9932 7.06302 48.3767 7.1229 48.7764 7.09296C48.7764 7.09296 49.2459 7.09296 49.5318 6.95572V7.07799L49.3621 7.21523H48.1094L47.9955 7.06302H47.9932Z" fill="#E0353E"/>
<path d="M49.3945 7.25322L49.536 7.1299V7.25322H49.3945Z" fill="#E0353E"/>
<path d="M49.7202 7.25322L49.5811 7.1299V7.25322H49.7202Z" fill="#E0353E"/>
<path d="M49.5811 6.94752V7.06864L49.767 7.21942H50.692V6.96235C50.692 6.96235 50.4503 7.05381 49.9808 7.03898C49.9808 7.03898 49.7252 7.02415 49.5834 6.94752H49.5811Z" fill="#E0353E"/>
<path d="M47.417 6.52755C47.417 6.52755 47.6587 6.63354 47.8865 6.52755C47.8865 6.52755 48.0724 6.42155 48.17 6.15041L48.2839 6.22682C48.2839 6.22682 48.0422 6.72474 47.7726 6.75432C47.7726 6.75432 47.5169 6.79869 47.417 6.52755Z" fill="#E0353E"/>
<path d="M48.3717 6.1066C48.3717 6.1066 48.2997 6.2271 48.23 6.15087C48.23 6.15087 48.13 6.01561 48.23 5.85085C48.23 5.85085 48.302 5.75986 48.3717 5.8656C48.3717 5.8656 48.4717 5.92462 48.4136 5.82134C48.4136 5.82134 48.2997 5.67133 48.4275 5.4746C48.4275 5.4746 48.5693 5.27786 48.7274 5.41557C48.7274 5.41557 48.7552 5.47459 48.7552 5.55083C48.7552 5.55083 48.811 5.59509 48.811 5.50656C48.811 5.50656 48.725 5.2213 49.0388 5.03932C49.0388 5.03932 49.3084 4.88931 49.3944 5.25081C49.3944 5.25081 49.4223 5.3418 49.4502 5.25081C49.4502 5.25081 49.3642 4.83029 49.764 4.78357C49.764 4.78357 50.0475 4.7393 50.1056 5.08359C50.1056 5.08359 50.1475 5.17458 50.1614 5.08359C50.1614 5.08359 50.1475 4.58683 50.689 4.60159C50.689 4.60159 51.0586 4.61634 51.1306 4.97784C51.1306 4.97784 51.1725 5.32459 50.8308 5.41557C50.8308 5.41557 50.9447 5.00981 50.6309 5.00981C50.6309 5.00981 50.4612 5.00981 50.445 5.28032C50.445 5.28032 50.431 5.45984 50.7146 5.64182L50.8703 5.73281L50.8145 5.91233C50.8145 5.91233 50.3171 5.47459 49.6896 5.50656C49.6896 5.50656 48.9644 5.4623 48.3671 6.10906L48.3717 6.1066Z" fill="#E0353E"/>
<path d="M47.8447 6.78353C47.8447 6.78353 48.0725 6.70729 48.2143 6.43678C48.2143 6.43678 48.4281 5.87855 49.1672 5.65477C49.1672 5.65477 49.9365 5.29327 50.7895 5.95479L50.7617 6.15152C50.7617 6.15152 50.4479 5.79002 49.8924 5.79002C49.8924 5.79002 49.2672 5.77527 49.2672 6.28677C49.2672 6.28677 49.2532 6.51302 49.5089 6.60401C49.5089 6.60401 49.6786 6.66303 49.8366 6.58925C49.8366 6.58925 49.7646 6.85976 49.467 6.87452C49.467 6.87452 49.0835 6.88927 48.9975 6.52777C48.9975 6.52777 48.9836 6.10725 48.7279 6.15152C48.7279 6.15152 48.5862 6.13676 48.3305 6.45154C48.3305 6.45154 48.1167 6.75156 47.847 6.78353H47.8447Z" fill="#E0353E"/>
<path d="M49.9639 5.8492C49.9639 5.8492 50.4473 5.8492 50.7611 6.22634L50.7332 6.45312C50.7332 6.45312 50.4636 5.96998 49.9639 5.8492Z" fill="#E0353E"/>
<path d="M50.7197 7.24826C50.7197 7.24826 50.7476 6.33099 50.9196 5.66947C50.9196 5.66947 50.9917 5.48995 51.1474 5.54897C51.1474 5.54897 51.2892 5.57848 51.2613 5.77521C51.2613 5.77521 51.0753 6.51297 51.0753 7.24826H50.7197Z" fill="#E0353E"/>
<path d="M51.1338 7.05509L51.2332 6.87464L51.1477 6.75352C51.1477 6.75352 51.1338 6.91913 51.1338 7.05509Z" fill="#E0353E"/>
<path d="M51.3758 6.53992C51.3758 6.53992 51.2616 6.5695 51.2337 6.64592C51.2337 6.64592 51.2477 6.69029 51.3199 6.7667L51.2477 6.8579C51.2477 6.8579 51.1614 6.75191 51.1475 6.63113C51.1475 6.63113 51.1754 6.52513 51.3036 6.46597L51.3758 6.54239V6.53992Z" fill="#E0353E"/>
<path d="M51.1611 6.52956L51.2866 6.43723L51.2022 6.29999C51.2022 6.29999 51.1748 6.42226 51.1611 6.52956Z" fill="#E0353E"/>
<path d="M51.2896 6.677C51.2896 6.677 51.2756 6.64742 51.3036 6.61783C51.3036 6.61783 51.3456 6.58824 51.4178 6.58824C51.4178 6.58824 51.4458 6.58824 51.4737 6.61783L51.5739 6.69426C51.5739 6.69426 51.518 6.66468 51.4318 6.70906C51.4318 6.70906 51.3898 6.75344 51.3456 6.73865C51.3456 6.73865 51.3176 6.72385 51.2896 6.67947V6.677Z" fill="#E0353E"/>
<path d="M51.3028 5.78978C51.3028 5.78978 51.2307 6.00146 51.2168 6.2279C51.2168 6.2279 51.3865 6.72509 52.0861 6.81616L52.1 6.69555C52.1 6.69555 51.6863 6.58972 51.5027 6.3485C51.5027 6.3485 51.333 6.1516 51.347 5.80701L51.3051 5.79224L51.3028 5.78978Z" fill="#E0353E"/>
<path d="M51.5727 5.57802C51.5727 5.57802 51.3867 5.59278 51.3867 5.9103C51.3867 5.9103 51.4146 6.24258 51.6424 6.42226C51.6424 6.42226 51.8423 6.5724 52.1119 6.6487L52.1258 6.55763C52.1258 6.55763 51.984 6.51333 51.8981 6.43702C51.8981 6.43702 51.8562 6.37795 51.9259 6.39272C51.9259 6.39272 52.0398 6.46902 52.1398 6.51333L52.1677 6.42226C52.1677 6.42226 51.8981 6.28688 51.7539 6.07521L51.6982 6.13428C51.6982 6.13428 51.6563 6.14905 51.6703 6.10474C51.6703 6.10474 51.7981 6.02844 51.7842 5.81923C51.7842 5.81923 51.7702 5.56325 51.5703 5.57802H51.5727Z" fill="#E0353E"/>
<path d="M51.1338 7.24946C51.1338 7.24946 51.1338 7.0991 51.2616 6.91916C51.2616 6.91916 51.3616 6.75401 51.5893 6.73922C51.5893 6.73922 51.6753 6.73922 51.8311 6.79838C51.8311 6.79838 51.9589 6.85753 52.0728 6.85753V7.03748C52.0728 7.03748 51.9031 6.93148 51.7172 6.93148C51.7172 6.93148 51.4034 6.91669 51.2895 7.247H51.1338V7.24946Z" fill="#E0353E"/>
<path d="M52.1143 7.25743H52.4559C52.4559 7.25743 52.442 6.81438 52.5698 6.46733C52.5698 6.46733 52.6558 6.28766 52.514 6.21135C52.514 6.21135 52.3862 6.12028 52.2723 6.28766C52.2723 6.28766 52.1166 6.62732 52.1166 7.25989L52.1143 7.25743Z" fill="#E0353E"/>
<path d="M52.0556 7.14758V7.08769C52.0556 7.08769 51.9138 6.99537 51.7 6.99537C51.7 6.99537 51.4304 7.01034 51.3281 7.25238H51.4281C51.4281 7.25238 51.528 7.05525 51.7558 7.05525C51.7558 7.05525 51.9115 7.05525 52.0556 7.14758Z" fill="#E0353E"/>
<path d="M51.473 7.25476H51.659C51.659 7.25476 51.659 7.20683 51.7147 7.20683H52.0564C52.0564 7.20683 51.9425 7.12864 51.7566 7.1135C51.7566 7.1135 51.5567 7.12864 51.4707 7.25223L51.473 7.25476Z" fill="#E0353E"/>
<path d="M54.2667 8.79928C55.1216 8.79928 55.8146 8.06601 55.8146 7.16147C55.8146 6.25694 55.1216 5.52366 54.2667 5.52366C53.4118 5.52366 52.7188 6.25694 52.7188 7.16147C52.7188 8.06601 53.4118 8.79928 54.2667 8.79928Z" fill="#E0353E"/>
</svg>
